<?xml version="1.0" encoding="UTF-8"?>
<svg id="Laag_1" data-name="Laag 1" xmlns="http://www.w3.org/2000/svg" xmlns:xlink="http://www.w3.org/1999/xlink" viewBox="0 0 924 978">
  <defs>
    <style>
      .cls-1 {
        clip-path: url(#clippath);
      }

      .cls-2 {
        stroke-width: 0px;
      }

      .cls-2, .cls-3 {
        fill: none;
      }

      .cls-3 {
        stroke: #fff;
        stroke-miterlimit: 10;
      }
    </style>
    <clipPath id="clippath">
      <rect class="cls-2" x="-.5" y="-73.5" width="997" height="1052"/>
    </clipPath>
  </defs>
  <g class="cls-1">
    <g>
      <path class="cls-3" d="m-50,47s394.5,66.5-221.5,931.5"/>
      <path class="cls-3" d="m-49.52,46.05s410.67,69.57-200.86,932.45"/>
      <path class="cls-3" d="m-49.04,45.1s426.83,72.64-180.23,933.4"/>
      <path class="cls-3" d="m-48.56,44.15s443,75.71-159.59,934.35"/>
      <path class="cls-3" d="m-48.08,43.2s459.17,78.77-138.95,935.3"/>
      <path class="cls-3" d="m-47.6,42.25s475.33,81.84-118.31,936.25"/>
      <path class="cls-3" d="m-47.12,41.29s491.5,84.91-97.68,937.21"/>
      <path class="cls-3" d="m-46.64,40.34s507.67,87.98-77.04,938.16"/>
      <path class="cls-3" d="m-46.16,39.39s523.83,91.05-56.4,939.11"/>
      <path class="cls-3" d="m-45.68,38.44s540,94.12-35.76,940.06"/>
      <path class="cls-3" d="m-45.2,37.49s556.17,97.19-15.13,941.01"/>
      <path class="cls-3" d="m-44.72,36.54s572.33,100.25,5.51,941.96"/>
      <path class="cls-3" d="m-44.24,35.59s588.5,103.32,26.15,942.91"/>
      <path class="cls-3" d="m-43.75,34.64S560.91,141.03,3.03,978.5"/>
      <path class="cls-3" d="m-43.27,33.69S577.56,143.15,24.15,978.5"/>
      <path class="cls-3" d="m-42.79,32.74s637,112.53,88.06,945.76"/>
      <path class="cls-3" d="m-42.31,31.78s653.17,115.6,108.7,946.72"/>
      <path class="cls-3" d="m-41.83,30.83s669.33,118.67,129.33,947.67"/>
      <path class="cls-3" d="m-41.35,29.88s685.5,121.74,149.97,948.62"/>
      <path class="cls-3" d="m-40.87,28.93s701.67,124.8,170.61,949.57"/>
      <path class="cls-3" d="m-40.39,27.98s717.83,127.87,191.25,950.52"/>
      <path class="cls-3" d="m-39.91,27.03s734,130.94,211.88,951.47"/>
      <path class="cls-3" d="m-39.43,26.08s750.17,134.01,232.52,952.42"/>
      <path class="cls-3" d="m-38.95,25.13s766.33,137.08,253.16,953.37"/>
      <path class="cls-3" d="m-38.47,24.18S744.03,164.32,235.32,978.5"/>
      <path class="cls-3" d="m-37.99,23.23s798.67,143.22,294.43,955.27"/>
      <path class="cls-3" d="m-37.51,22.27s814.83,146.28,315.07,956.23"/>
      <path class="cls-3" d="m-37.03,21.32s831,149.35,335.71,957.18"/>
      <path class="cls-3" d="m-36.55,20.37s847.17,152.42,356.34,958.13"/>
      <path class="cls-3" d="m-36.07,19.42s863.33,155.49,376.98,959.08"/>
      <path class="cls-3" d="m-35.59,18.47s879.5,158.56,397.62,960.03"/>
      <path class="cls-3" d="m-35.11,17.52s895.67,161.63,418.25,960.98"/>
      <path class="cls-3" d="m-34.63,16.57s911.83,164.7,438.89,961.93"/>
      <path class="cls-3" d="m-34.15,15.62s928,167.76,459.53,962.88"/>
      <path class="cls-3" d="m-33.67,14.67s944.17,170.83,480.17,963.83"/>
      <path class="cls-3" d="m-33.19,13.72s960.33,173.9,500.8,964.78"/>
      <path class="cls-3" d="m-32.71,12.76S943.79,189.74,488.74,978.5"/>
      <path class="cls-3" d="m-32.23,11.81S960.44,191.85,509.85,978.5"/>
      <path class="cls-3" d="m-31.75,10.86s1008.83,183.11,562.72,967.64"/>
      <path class="cls-3" d="m-31.26,9.91S993.74,196.09,552.09,978.5"/>
      <path class="cls-3" d="m-30.78,8.96S1010.38,198.21,573.21,978.5"/>
      <path class="cls-3" d="m-30.3,8.01s1057.33,192.31,624.63,970.49"/>
      <path class="cls-3" d="m-29.82,7.06s1073.5,195.38,645.26,971.44"/>
      <path class="cls-3" d="m-29.34,6.11s1089.67,198.45,665.9,972.39"/>
      <path class="cls-3" d="m-28.86,5.16s1105.83,201.52,686.54,973.34"/>
      <path class="cls-3" d="m-28.38,4.21s1122,204.59,707.18,974.29"/>
      <path class="cls-3" d="m-27.9,3.25s1138.17,207.66,727.81,975.25"/>
      <path class="cls-3" d="m-27.42,2.3s1154.33,210.73,748.45,976.2"/>
      <path class="cls-3" d="m-26.94,1.35s1170.5,213.79,769.09,977.15"/>
      <path class="cls-3" d="m-26.46.4s1186.67,216.86,789.73,978.1"/>
      <path class="cls-3" d="m-25.98-.55s1202.83,219.93,810.36,979.05"/>
      <path class="cls-3" d="m-25.5-1.5s1219,223,831,980"/>
    </g>
  </g>
</svg>