<?xml version="1.0" encoding="UTF-8"?>
<svg id="Laag_1" data-name="Laag 1" xmlns="http://www.w3.org/2000/svg" xmlns:xlink="http://www.w3.org/1999/xlink" viewBox="0 0 1191 932">
  <defs>
    <style>
      .cls-1 {
        clip-path: url(#clippath);
      }

      .cls-2 {
        stroke-width: 0px;
      }

      .cls-2, .cls-3 {
        fill: none;
      }

      .cls-4 {
        clip-path: url(#clippath-1);
      }

      .cls-3 {
        stroke: #ff6902;
        stroke-miterlimit: 10;
      }
    </style>
    <clipPath id="clippath">
      <rect class="cls-2" x="1252.5" y="-96.5" width="997" height="1052"/>
    </clipPath>
    <clipPath id="clippath-1">
      <rect class="cls-2" x="-.5" y=".5" width="1191" height="931"/>
    </clipPath>
  </defs>
  <g class="cls-1">
    <g>
      <path class="cls-3" d="m1203,24s394.5,66.5-221.5,931.5"/>
      <path class="cls-3" d="m1203.48,23.05s410.67,69.57-200.86,932.45"/>
      <path class="cls-3" d="m1203.96,22.1s426.83,72.64-180.23,933.4"/>
      <path class="cls-3" d="m1204.44,21.15s443,75.71-159.59,934.35"/>
      <path class="cls-3" d="m1204.92,20.2s459.17,78.77-138.95,935.3"/>
      <path class="cls-3" d="m1205.4,19.25s475.33,81.84-118.31,936.25"/>
      <path class="cls-3" d="m1205.88,18.29s491.5,84.91-97.68,937.21"/>
      <path class="cls-3" d="m1206.36,17.34s507.67,87.98-77.04,938.16"/>
      <path class="cls-3" d="m1206.84,16.39s523.83,91.05-56.4,939.11"/>
      <path class="cls-3" d="m1207.32,15.44s540,94.12-35.76,940.06"/>
    </g>
  </g>
  <g class="cls-4">
    <g>
      <path class="cls-3" d="m241,1S635.5,67.5,19.5,932.5"/>
      <path class="cls-3" d="m241.48.05S652.15,69.62,40.62,932.5"/>
      <path class="cls-3" d="m241.96-.9S668.79,71.74,61.74,932.5"/>
      <path class="cls-3" d="m242.44-1.85s443,75.71-159.59,934.35"/>
      <path class="cls-3" d="m242.92-2.8s459.17,78.77-138.95,935.3"/>
      <path class="cls-3" d="m243.4-3.75s475.33,81.84-118.31,936.25"/>
      <path class="cls-3" d="m243.88-4.71s491.5,84.91-97.68,937.21"/>
      <path class="cls-3" d="m244.36-5.66s507.67,87.98-77.04,938.16"/>
      <path class="cls-3" d="m244.84-6.61s523.83,91.05-56.4,939.11"/>
      <path class="cls-3" d="m245.32-7.56s540,94.12-35.76,940.06"/>
      <path class="cls-3" d="m245.8-8.51s556.17,97.19-15.13,941.01"/>
      <path class="cls-3" d="m246.28-9.46s572.33,100.25,5.51,941.96"/>
      <path class="cls-3" d="m246.76-10.41s588.5,103.32,26.15,942.91"/>
      <path class="cls-3" d="m247.25-11.36s604.67,106.39,46.78,943.86"/>
      <path class="cls-3" d="m247.73-12.31s620.83,109.46,67.42,944.81"/>
      <path class="cls-3" d="m248.21-13.26s637,112.53,88.06,945.76"/>
      <path class="cls-3" d="m248.69-14.22s653.17,115.6,108.7,946.72"/>
      <path class="cls-3" d="m249.17-15.17s669.33,118.67,129.33,947.67"/>
      <path class="cls-3" d="m249.65-16.12s685.5,121.74,149.97,948.62"/>
      <path class="cls-3" d="m250.13-17.07s701.67,124.8,170.61,949.57"/>
      <path class="cls-3" d="m250.61-18.02s717.83,127.87,191.25,950.52"/>
      <path class="cls-3" d="m251.09-18.97s734,130.94,211.88,951.47"/>
      <path class="cls-3" d="m251.57-19.92s750.17,134.01,232.52,952.42"/>
      <path class="cls-3" d="m252.05-20.87s766.33,137.08,253.16,953.37"/>
      <path class="cls-3" d="m252.53-21.82s782.5,140.15,273.79,954.32"/>
      <path class="cls-3" d="m253.01-22.77s798.67,143.22,294.43,955.27"/>
      <path class="cls-3" d="m253.49-23.73s814.83,146.28,315.07,956.23"/>
      <path class="cls-3" d="m253.97-24.68s831,149.35,335.71,957.18"/>
      <path class="cls-3" d="m254.45-25.63s847.17,152.42,356.34,958.13"/>
      <path class="cls-3" d="m254.93-26.58s863.33,155.49,376.98,959.08"/>
      <path class="cls-3" d="m255.41-27.53s879.5,158.56,397.62,960.03"/>
      <path class="cls-3" d="m255.89-28.48s895.67,161.63,418.25,960.98"/>
      <path class="cls-3" d="m256.37-29.43s911.83,164.7,438.89,961.93"/>
      <path class="cls-3" d="m256.85-30.38s928,167.76,459.53,962.88"/>
      <path class="cls-3" d="m257.33-31.33s944.17,170.83,480.17,963.83"/>
      <path class="cls-3" d="m257.81-32.28s960.33,173.9,500.8,964.78"/>
      <path class="cls-3" d="m258.29-33.24s976.5,176.97,521.44,965.74"/>
      <path class="cls-3" d="m258.77-34.19s992.67,180.04,542.08,966.69"/>
      <path class="cls-3" d="m259.25-35.14s1008.83,183.11,562.72,967.64"/>
      <path class="cls-3" d="m259.74-36.09s1025,186.18,583.35,968.59"/>
      <path class="cls-3" d="m260.22-37.04s1041.17,189.25,603.99,969.54"/>
      <path class="cls-3" d="m260.7-37.99s1057.33,192.31,624.63,970.49"/>
      <path class="cls-3" d="m261.18-38.94s1073.5,195.38,645.26,971.44"/>
      <path class="cls-3" d="m261.66-39.89s1089.67,198.45,665.9,972.39"/>
      <path class="cls-3" d="m262.14-40.84s1105.83,201.52,686.54,973.34"/>
      <path class="cls-3" d="m262.62-41.79s1122,204.59,707.18,974.29"/>
      <path class="cls-3" d="m263.1-42.75s1138.17,207.66,727.81,975.25"/>
      <path class="cls-3" d="m263.58-43.7s1154.33,210.73,748.45,976.2"/>
      <path class="cls-3" d="m264.06-44.65s1170.5,213.79,769.09,977.15"/>
      <path class="cls-3" d="m264.54-45.6s1186.67,216.86,789.73,978.1"/>
      <path class="cls-3" d="m265.02-46.55s1202.83,219.93,810.36,979.05"/>
      <path class="cls-3" d="m265.5-47.5s1219,223,831,980"/>
    </g>
  </g>
</svg>