<?xml version="1.0" encoding="UTF-8"?>
<svg id="Laag_1" data-name="Laag 1" xmlns="http://www.w3.org/2000/svg" viewBox="0 0 2000 987">
  <defs>
    <style>
      .cls-1 {
        opacity: .07;
      }

      .cls-2 {
        fill: #592e9d;
      }

      .cls-2, .cls-3 {
        stroke-width: 0px;
      }

      .cls-3 {
        fill: #eaf0f0;
      }
    </style>
  </defs>
  <rect class="cls-2" x="-7.5" y="-7" width="2017" height="1003"/>
  <g class="cls-1">
    <path class="cls-3" d="m874.39,977.34c17.68,0,32.06-14.38,32.06-32.06,0-17.68-14.38-32.06-32.06-32.06h-83.86s0,.02,0,.02c-17.38.35-31.41,14.58-31.41,32.04,0,17.46,14.03,31.7,31.41,32.05v.02s83.86,0,83.86,0h0Z"/>
    <path class="cls-3" d="m87.26,947.03c0,17.61,14.27,31.95,31.86,32.06h0s167.09,0,167.09,0h0c.07,0,.13,0,.2,0,17.68,0,32.06-14.38,32.06-32.06,0-17.68-14.38-32.06-32.06-32.06-.07,0-.13,0-.2,0h0s-167.09,0-167.09,0h0c-17.59.11-31.86,14.45-31.86,32.06Z"/>
    <path class="cls-3" d="m957.12,970.22c17.61-.05,31.91-14.36,31.97-31.95h0s-.44-167.09-.44-167.09h0c0-.07,0-.13,0-.2-.05-17.68-14.47-32.02-32.15-31.98-17.68.05-32.02,14.47-31.98,32.15,0,.07,0,.13,0,.2h0s.44,167.09.44,167.09h0c.15,17.59,14.53,31.82,32.14,31.78Z"/>
    <path class="cls-3" d="m403.63,40.67c-.05-17.68-14.47-32.02-32.15-31.98-17.68.05-32.02,14.47-31.98,32.14h0l.22,83.86h.02c.39,17.38,14.67,31.38,32.13,31.33s31.66-14.12,31.96-31.5h.02s-.22-83.86-.22-83.86h0Z"/>
    <path class="cls-3" d="m652.61,40.01c-.05-17.68-14.47-32.02-32.15-31.98-17.68.05-32.02,14.47-31.98,32.14h0l.22,83.86h.02c.39,17.38,14.67,31.38,32.13,31.33,17.46-.05,31.66-14.12,31.96-31.5h.02s-.22-83.86-.22-83.86h0Z"/>
    <path class="cls-3" d="m152.34,41.17c-.05-17.68-14.47-32.02-32.15-31.98-17.68.05-32.02,14.47-31.98,32.15,0,.06,0,.11,0,.17h0s.66,249.47.66,249.47c.05,17.68,14.47,32.02,32.15,31.98s32.02-14.47,31.98-32.15l-.66-249.47h0c0-.06,0-.11,0-.17Z"/>
    <path class="cls-3" d="m404.51,366.36c-.05-17.68-14.47-32.02-32.15-31.98s-32.02,14.47-31.98,32.14h0l.22,83.86h.02c.39,17.38,14.67,31.38,32.13,31.33s31.66-14.12,31.96-31.5h.02s-.22-83.86-.22-83.86h0Z"/>
    <path class="cls-3" d="m237.73,369.77c-.05-17.61-14.36-31.91-31.95-31.97h0s-167.09.43-167.09.43h0c-.07,0-.13,0-.2,0-17.68.05-32.02,14.47-31.98,32.15.05,17.68,14.47,32.02,32.15,31.98.07,0,.13,0,.2,0h0s167.09-.43,167.09-.43h0c17.59-.16,31.82-14.53,31.78-32.15Z"/>
    <path class="cls-3" d="m486.52,40.29c-.05-17.68-14.47-32.02-32.15-31.98-17.68.05-32.02,14.47-31.98,32.15,0,.06,0,.11,0,.17h0s.66,249.47.66,249.47c.05,17.68,14.47,32.02,32.15,31.98s32.02-14.47,31.98-32.15l-.66-249.47h0c0-.06,0-.11,0-.17Z"/>
    <path class="cls-3" d="m203.98,322.93c17.61-.05,31.91-14.36,31.97-31.95h0s-.44-167.09-.44-167.09h0c0-.07,0-.13,0-.2-.05-17.68-14.47-32.02-32.15-31.98s-32.02,14.47-31.98,32.15c0,.07,0,.13,0,.2h0s.44,167.09.44,167.09h0c.15,17.59,14.53,31.82,32.14,31.78Z"/>
    <path class="cls-3" d="m287.99,238.48c17.61-.05,31.91-14.36,31.97-31.95h0s-.44-167.09-.44-167.09h0c0-.07,0-.13,0-.2-.05-17.68-14.47-32.02-32.15-31.98-17.68.05-32.02,14.47-31.98,32.15,0,.07,0,.13,0,.2h0s.44,167.09.44,167.09h0c.15,17.59,14.53,31.82,32.14,31.78Z"/>
    <circle class="cls-3" cx="36.74" cy="41.47" r="32.06"/>
    <path class="cls-3" d="m203.91,73.09c-17.68.05-32.1-14.3-32.15-31.98-.05-17.68,14.3-32.1,31.98-32.15,17.68-.05,32.1,14.3,32.14,31.98.05,17.68-14.3,32.1-31.98,32.15Z"/>
    <path class="cls-3" d="m371.43,239.08c-17.68.05-32.1-14.3-32.14-31.98-.05-17.68,14.3-32.1,31.98-32.14,17.68-.05,32.1,14.3,32.15,31.98.05,17.68-14.3,32.1-31.98,32.15Z"/>
    <circle class="cls-3" cx="37.39" cy="291.11" r="32.06"/>
    <path class="cls-3" d="m288.11,322.51c-17.68.05-32.1-14.3-32.15-31.98-.05-17.68,14.3-32.1,31.98-32.15,17.68-.05,32.1,14.3,32.14,31.98.05,17.68-14.3,32.1-31.98,32.15Z"/>
    <path class="cls-3" d="m371.65,322.29c-17.68.05-32.1-14.3-32.14-31.98-.05-17.68,14.3-32.1,31.98-32.15,17.68-.05,32.1,14.3,32.15,31.98.05,17.68-14.3,32.1-31.98,32.15Z"/>
    <path class="cls-3" d="m538.74,321.85c-17.68.05-32.1-14.3-32.15-31.98s14.3-32.1,31.98-32.15c17.68-.05,32.1,14.3,32.14,31.98s-14.3,32.1-31.98,32.15Z"/>
    <path class="cls-3" d="m622.28,321.63c-17.68.05-32.1-14.3-32.14-31.98-.05-17.68,14.3-32.1,31.98-32.15,17.68-.05,32.1,14.3,32.15,31.98.05,17.68-14.3,32.1-31.98,32.15Z"/>
    <path class="cls-3" d="m288.55,480.94c-17.68.05-32.1-14.3-32.15-31.98-.05-17.68,14.3-32.1,31.98-32.15,17.68-.05,32.1,14.3,32.14,31.98.05,17.68-14.3,32.1-31.98,32.15Z"/>
    <path class="cls-3" d="m288.33,401.72c-17.68.05-32.1-14.3-32.15-31.98-.05-17.68,14.3-32.1,31.98-32.15,17.68-.05,32.1,14.3,32.14,31.98.05,17.68-14.3,32.1-31.98,32.15Z"/>
    <path class="cls-3" d="m537.81,155.59c-17.68.05-32.1-14.3-32.15-31.98-.05-17.68,14.3-32.1,31.98-32.15,17.68-.05,32.1,14.3,32.14,31.98s-14.3,32.1-31.98,32.15Z"/>
    <path class="cls-3" d="m537.59,72.38c-17.68.05-32.1-14.3-32.15-31.98-.05-17.68,14.3-32.1,31.98-32.15,17.68-.05,32.1,14.3,32.14,31.98.05,17.68-14.3,32.1-31.98,32.15Z"/>
    <path class="cls-3" d="m121.46,482.38c-17.68.05-32.1-14.3-32.15-31.98-.05-17.68,14.3-32.1,31.98-32.15,17.68-.05,32.1,14.3,32.14,31.98.05,17.68-14.3,32.1-31.98,32.15Z"/>
    <circle class="cls-3" cx="455.33" cy="369.22" r="32.06"/>
    <circle class="cls-3" cx="455.55" cy="448.19" r="32.06"/>
    <path class="cls-3" d="m69.02,124.6c-.05-17.68-14.47-32.02-32.15-31.98S4.85,107.09,4.9,124.77h0l.22,83.86h.02c.39,17.38,14.67,31.38,32.13,31.33,17.46-.05,31.66-14.12,31.96-31.5h.02s-.22-83.86-.22-83.86h0Z"/>
    <path class="cls-3" d="m621.08,238.29c17.68-.05,32.02-14.47,31.98-32.15-.05-17.68-14.47-32.02-32.14-31.98h0l-83.86.22v.02c-17.38.39-31.38,14.67-31.33,32.13s14.12,31.66,31.5,31.96v.02s83.86-.22,83.86-.22h0Z"/>
    <path class="cls-3" d="m621.72,481.37c17.68-.05,32.02-14.47,31.98-32.15-.05-17.68-14.47-32.02-32.14-31.98h0l-83.86.22v.02c-17.38.39-31.38,14.67-31.33,32.13s14.12,31.66,31.5,31.96v.02s83.86-.22,83.86-.22h0Z"/>
    <path class="cls-3" d="m69.89,449.45c-.05-17.68-14.47-32.02-32.15-31.98s-32.02,14.47-31.98,32.14h0l.22,83.86h.02c.39,17.38,14.67,31.38,32.13,31.33,17.46-.05,31.66-14.12,31.96-31.5h.02s-.22-83.86-.22-83.86h0Z"/>
    <path class="cls-3" d="m1072.27,38.91c-.05-17.68-14.47-32.02-32.15-31.98-17.68.05-32.02,14.47-31.98,32.14h0l.22,83.86h.02c.39,17.38,14.67,31.38,32.13,31.33s31.66-14.12,31.96-31.5h.02s-.22-83.86-.22-83.86h0Z"/>
    <path class="cls-3" d="m1321.25,38.26c-.05-17.68-14.47-32.02-32.15-31.98-17.68.05-32.02,14.47-31.98,32.14h0l.22,83.86h.02c.39,17.38,14.67,31.38,32.13,31.33,17.46-.05,31.66-14.12,31.96-31.5h.02s-.22-83.86-.22-83.86h0Z"/>
    <path class="cls-3" d="m820.98,39.41c-.05-17.68-14.47-32.02-32.15-31.98-17.68.05-32.02,14.47-31.98,32.15,0,.06,0,.11,0,.17h0s.66,249.47.66,249.47c.05,17.68,14.47,32.02,32.15,31.98,17.68-.05,32.02-14.47,31.98-32.15l-.66-249.47h0c0-.06,0-.11,0-.17Z"/>
    <path class="cls-3" d="m1073.14,366.6c-.05-17.68-14.47-32.02-32.15-31.98-17.68.05-32.02,14.47-31.98,32.14h0l.22,83.86h.02c.39,17.38,14.67,31.38,32.13,31.33s31.66-14.12,31.96-31.5h.02s-.22-83.86-.22-83.86h0Z"/>
    <path class="cls-3" d="m1155.16,38.53c-.05-17.68-14.47-32.02-32.15-31.98-17.68.05-32.02,14.47-31.98,32.15,0,.06,0,.11,0,.17h0s.66,249.47.66,249.47c.05,17.68,14.47,32.02,32.15,31.98,17.68-.05,32.02-14.47,31.98-32.15l-.66-249.47h0c0-.06,0-.11,0-.17Z"/>
    <path class="cls-3" d="m872.62,321.17c17.61-.05,31.91-14.36,31.97-31.95h0s-.44-167.09-.44-167.09h0c0-.07,0-.13,0-.2-.05-17.68-14.47-32.02-32.15-31.98-17.68.05-32.02,14.47-31.98,32.15,0,.07,0,.13,0,.2h0s.44,167.09.44,167.09h0c.15,17.59,14.53,31.82,32.14,31.78Z"/>
    <path class="cls-3" d="m956.63,236.72c17.61-.05,31.91-14.36,31.97-31.95h0s-.44-167.09-.44-167.09h0c0-.07,0-.13,0-.2-.05-17.68-14.47-32.02-32.15-31.98s-32.02,14.47-31.98,32.15c0,.07,0,.13,0,.2h0s.44,167.09.44,167.09h0c.15,17.59,14.53,31.82,32.14,31.78Z"/>
    <circle class="cls-3" cx="705.38" cy="39.71" r="32.06"/>
    <path class="cls-3" d="m872.55,71.33c-17.68.05-32.1-14.3-32.15-31.98s14.3-32.1,31.98-32.15c17.68-.05,32.1,14.3,32.14,31.98.05,17.68-14.3,32.1-31.98,32.15Z"/>
    <path class="cls-3" d="m1040.07,237.32c-17.68.05-32.1-14.3-32.14-31.98-.05-17.68,14.3-32.1,31.98-32.14,17.68-.05,32.1,14.3,32.15,31.98.05,17.68-14.3,32.1-31.98,32.15Z"/>
    <circle class="cls-3" cx="706.03" cy="289.35" r="32.06"/>
    <path class="cls-3" d="m956.75,320.75c-17.68.05-32.1-14.3-32.15-31.98-.05-17.68,14.3-32.1,31.98-32.15,17.68-.05,32.1,14.3,32.14,31.98.05,17.68-14.3,32.1-31.98,32.15Z"/>
    <path class="cls-3" d="m1040.29,320.53c-17.68.05-32.1-14.3-32.14-31.98s14.3-32.1,31.98-32.15c17.68-.05,32.1,14.3,32.15,31.98s-14.3,32.1-31.98,32.15Z"/>
    <path class="cls-3" d="m1207.38,320.09c-17.68.05-32.1-14.3-32.15-31.98s14.3-32.1,31.98-32.15c17.68-.05,32.1,14.3,32.14,31.98.05,17.68-14.3,32.1-31.98,32.15Z"/>
    <path class="cls-3" d="m1290.92,319.87c-17.68.05-32.1-14.3-32.14-31.98-.05-17.68,14.3-32.1,31.98-32.15,17.68-.05,32.1,14.3,32.15,31.98s-14.3,32.1-31.98,32.15Z"/>
    <path class="cls-3" d="m957.19,480.18c-17.68.05-32.1-14.3-32.15-31.98-.05-17.68,14.3-32.1,31.98-32.15,17.68-.05,32.1,14.3,32.14,31.98.05,17.68-14.3,32.1-31.98,32.15Z"/>
    <path class="cls-3" d="m956.97,399.96c-17.68.05-32.1-14.3-32.15-31.98-.05-17.68,14.3-32.1,31.98-32.15,17.68-.05,32.1,14.3,32.14,31.98.05,17.68-14.3,32.1-31.98,32.15Z"/>
    <path class="cls-3" d="m1206.45,153.83c-17.68.05-32.1-14.3-32.15-31.98-.05-17.68,14.3-32.1,31.98-32.15,17.68-.05,32.1,14.3,32.14,31.98.05,17.68-14.3,32.1-31.98,32.15Z"/>
    <path class="cls-3" d="m1206.23,70.62c-17.68.05-32.1-14.3-32.15-31.98-.05-17.68,14.3-32.1,31.98-32.15,17.68-.05,32.1,14.3,32.14,31.98.05,17.68-14.3,32.1-31.98,32.15Z"/>
    <path class="cls-3" d="m790.1,480.62c-17.68.05-32.1-14.3-32.15-31.98-.05-17.68,14.3-32.1,31.98-32.15,17.68-.05,32.1,14.3,32.14,31.98.05,17.68-14.3,32.1-31.98,32.15Z"/>
    <circle class="cls-3" cx="1123.97" cy="366.46" r="32.06"/>
    <circle class="cls-3" cx="1124.19" cy="448.43" r="32.06"/>
    <path class="cls-3" d="m737.66,122.84c-.05-17.68-14.47-32.02-32.15-31.98s-32.02,14.47-31.98,32.14h0l.22,83.86h.02c.39,17.38,14.67,31.38,32.13,31.33,17.46-.05,31.66-14.12,31.96-31.5h.02s-.22-83.86-.22-83.86h0Z"/>
    <path class="cls-3" d="m1289.72,236.53c17.68-.05,32.02-14.47,31.98-32.15-.05-17.68-14.47-32.02-32.14-31.98h0l-83.86.22v.02c-17.38.39-31.38,14.67-31.33,32.13s14.12,31.66,31.5,31.96v.02s83.86-.22,83.86-.22h0Z"/>
    <path class="cls-3" d="m1293.36,480.61c17.68-.05,32.02-14.47,31.98-32.15-.05-17.68-14.47-32.02-32.14-31.98h0l-83.86.22v.02c-17.38.39-31.38,14.67-31.33,32.13.05,17.46,14.12,31.66,31.5,31.96v.02s83.86-.22,83.86-.22h0Z"/>
    <path class="cls-3" d="m739.03,449.19c-.05-17.68-14.47-32.02-32.15-31.98s-32.02,14.47-31.98,32.14h0l.22,83.86h.02c.39,17.38,14.67,31.38,32.13,31.33s31.66-14.12,31.96-31.5h.02s-.22-83.86-.22-83.86h0Z"/>
    <path class="cls-3" d="m1743.55,37.14c-.05-17.68-14.47-32.02-32.15-31.98-17.68.05-32.02,14.47-31.98,32.14h0l.22,83.86h.02c.39,17.38,14.67,31.38,32.13,31.33s31.66-14.12,31.96-31.5h.02s-.22-83.86-.22-83.86h0Z"/>
    <path class="cls-3" d="m1992.53,36.49c-.05-17.68-14.47-32.02-32.15-31.98-17.68.05-32.02,14.47-31.98,32.14h0l.22,83.86h.02c.39,17.38,14.67,31.38,32.13,31.33,17.46-.05,31.66-14.12,31.96-31.5h.02s-.22-83.86-.22-83.86h0Z"/>
    <path class="cls-3" d="m1492.26,37.64c-.05-17.68-14.47-32.02-32.15-31.98-17.68.05-32.02,14.47-31.98,32.15,0,.06,0,.11,0,.17h0s.66,249.47.66,249.47c.05,17.68,14.47,32.02,32.15,31.98,17.68-.05,32.02-14.47,31.98-32.15l-.66-249.47h0c0-.06,0-.11,0-.17Z"/>
    <path class="cls-3" d="m1744.43,364.83c-.05-17.68-14.47-32.02-32.15-31.98-17.68.05-32.02,14.47-31.98,32.14h0l.22,83.86h.02c.39,17.38,14.67,31.38,32.13,31.33,17.46-.05,31.66-14.12,31.96-31.5h.02s-.22-83.86-.22-83.86h0Z"/>
    <path class="cls-3" d="m1530.21,334.17h0s-324.32.17-324.32.17h0c-.07,0-.13,0-.2,0-17.68.05-32.02,14.47-31.98,32.15.05,17.68,14.47,32.02,32.15,31.98.07,0,.13,0,.2,0h0s324.32.08,324.32.08h0c17.59-.16,31.82-14.59,31.78-32.27-.05-17.68-14.36-32.03-31.95-32.09Z"/>
    <path class="cls-3" d="m1530.21,828.48h0s-324.32.17-324.32.17h0c-.07,0-.13,0-.2,0-17.68.05-32.02,14.47-31.98,32.15.05,17.68,14.47,32.02,32.15,31.98.07,0,.13,0,.2,0h0s324.32.08,324.32.08h0c17.59-.16,31.82-14.59,31.78-32.27-.05-17.68-14.36-32.03-31.95-32.09Z"/>
    <path class="cls-3" d="m867.85,336.17h0s-324.32.17-324.32.17h0c-.07,0-.13,0-.2,0-17.68.05-32.02,14.47-31.98,32.15.05,17.68,14.47,32.02,32.15,31.98.07,0,.13,0,.2,0h0s324.32.08,324.32.08h0c17.59-.16,31.82-14.59,31.78-32.27-.05-17.68-14.36-32.03-31.95-32.09Z"/>
    <path class="cls-3" d="m867.85,827.43h0s-324.32.17-324.32.17h0c-.07,0-.13,0-.2,0-17.68.05-32.02,14.47-31.98,32.15.05,17.68,14.47,32.02,32.15,31.98.07,0,.13,0,.2,0h0s324.32.08,324.32.08h0c17.59-.16,31.82-14.59,31.78-32.27-.05-17.68-14.36-32.03-31.95-32.09Z"/>
    <path class="cls-3" d="m1826.44,36.76c-.05-17.68-14.47-32.02-32.15-31.98-17.68.05-32.02,14.47-31.98,32.15,0,.06,0,.11,0,.17h0s.66,249.47.66,249.47c.05,17.68,14.47,32.02,32.15,31.98,17.68-.05,32.02-14.47,31.98-32.15l-.66-249.47h0c0-.06,0-.11,0-.17Z"/>
    <path class="cls-3" d="m1543.9,319.41c17.61-.05,31.91-14.36,31.97-31.95h0s-.44-167.09-.44-167.09h0c0-.07,0-.13,0-.2-.05-17.68-14.47-32.02-32.15-31.98-17.68.05-32.02,14.47-31.98,32.15,0,.07,0,.13,0,.2h0s.44,167.09.44,167.09h0c.15,17.59,14.53,31.82,32.14,31.78Z"/>
    <path class="cls-3" d="m1627.91,234.95c17.61-.05,31.91-14.36,31.97-31.95h0s-.44-167.09-.44-167.09h0c0-.07,0-.13,0-.2-.05-17.68-14.47-32.02-32.15-31.98s-32.02,14.47-31.98,32.15c0,.07,0,.13,0,.2h0s.44,167.09.44,167.09h0c.15,17.59,14.53,31.82,32.14,31.78Z"/>
    <circle class="cls-3" cx="1376.66" cy="37.94" r="32.06"/>
    <path class="cls-3" d="m1543.83,69.57c-17.68.05-32.1-14.3-32.15-31.98-.05-17.68,14.3-32.1,31.98-32.15,17.68-.05,32.1,14.3,32.14,31.98.05,17.68-14.3,32.1-31.98,32.15Z"/>
    <path class="cls-3" d="m1711.36,235.55c-17.68.05-32.1-14.3-32.14-31.98-.05-17.68,14.3-32.1,31.98-32.14,17.68-.05,32.1,14.3,32.15,31.98.05,17.68-14.3,32.1-31.98,32.15Z"/>
    <circle class="cls-3" cx="1377.32" cy="287.58" r="32.06"/>
    <path class="cls-3" d="m1628.03,318.99c-17.68.05-32.1-14.3-32.15-31.98-.05-17.68,14.3-32.1,31.98-32.15,17.68-.05,32.1,14.3,32.14,31.98s-14.3,32.1-31.98,32.15Z"/>
    <path class="cls-3" d="m1711.57,318.77c-17.68.05-32.1-14.3-32.14-31.98s14.3-32.1,31.98-32.15c17.68-.05,32.1,14.3,32.15,31.98.05,17.68-14.3,32.1-31.98,32.15Z"/>
    <path class="cls-3" d="m1878.66,318.33c-17.68.05-32.1-14.3-32.15-31.98-.05-17.68,14.3-32.1,31.98-32.15,17.68-.05,32.1,14.3,32.14,31.98.05,17.68-14.3,32.1-31.98,32.15Z"/>
    <path class="cls-3" d="m1962.2,318.11c-17.68.05-32.1-14.3-32.14-31.98-.05-17.68,14.3-32.1,31.98-32.15,17.68-.05,32.1,14.3,32.15,31.98.05,17.68-14.3,32.1-31.98,32.15Z"/>
    <path class="cls-3" d="m1628.47,480.41c-17.68.05-32.1-14.3-32.15-31.98-.05-17.68,14.3-32.1,31.98-32.15,17.68-.05,32.1,14.3,32.14,31.98.05,17.68-14.3,32.1-31.98,32.15Z"/>
    <path class="cls-3" d="m1628.25,398.2c-17.68.05-32.1-14.3-32.15-31.98-.05-17.68,14.3-32.1,31.98-32.15,17.68-.05,32.1,14.3,32.14,31.98.05,17.68-14.3,32.1-31.98,32.15Z"/>
    <path class="cls-3" d="m1877.73,152.07c-17.68.05-32.1-14.3-32.15-31.98-.05-17.68,14.3-32.1,31.98-32.15,17.68-.05,32.1,14.3,32.14,31.98.05,17.68-14.3,32.1-31.98,32.15Z"/>
    <path class="cls-3" d="m1877.51,68.85c-17.68.05-32.1-14.3-32.15-31.98-.05-17.68,14.3-32.1,31.98-32.15,17.68-.05,32.1,14.3,32.14,31.98.05,17.68-14.3,32.1-31.98,32.15Z"/>
    <path class="cls-3" d="m1461.38,480.85c-17.68.05-32.1-14.3-32.15-31.98-.05-17.68,14.3-32.1,31.98-32.15,17.68-.05,32.1,14.3,32.14,31.98s-14.3,32.1-31.98,32.15Z"/>
    <circle class="cls-3" cx="1795.25" cy="367.7" r="32.06"/>
    <circle class="cls-3" cx="1795.47" cy="448.66" r="32.06"/>
    <path class="cls-3" d="m1408.94,121.07c-.05-17.68-14.47-32.02-32.15-31.98-17.68.05-32.02,14.47-31.98,32.14h0l.22,83.86h.02c.39,17.38,14.67,31.38,32.13,31.33s31.66-14.12,31.96-31.5h.02s-.22-83.86-.22-83.86h0Z"/>
    <path class="cls-3" d="m1961,234.77c17.68-.05,32.02-14.47,31.98-32.15-.05-17.68-14.47-32.02-32.14-31.98h0l-83.86.22v.02c-17.38.39-31.38,14.67-31.33,32.13.05,17.46,14.12,31.66,31.5,31.96v.02s83.86-.22,83.86-.22h0Z"/>
    <path class="cls-3" d="m1961.64,480.84c17.68-.05,32.02-14.47,31.98-32.15-.05-17.68-14.47-32.02-32.14-31.98h0l-83.86.22v.02c-17.38.39-31.38,14.67-31.33,32.13.05,17.46,14.12,31.66,31.5,31.96v.02s83.86-.22,83.86-.22h0Z"/>
    <path class="cls-3" d="m1961.64,398.02c17.68-.05,32.02-14.47,31.98-32.15-.05-17.68-14.47-32.02-32.14-31.98h0l-83.86.22v.02c-17.38.39-31.38,14.67-31.33,32.13.05,17.46,14.12,31.66,31.5,31.96v.02s83.86-.22,83.86-.22h0Z"/>
    <path class="cls-3" d="m1409.82,451.93c-.05-17.68-14.47-32.02-32.15-31.98-17.68.05-32.02,14.47-31.98,32.14h0l.22,83.86h.02c.39,17.38,14.67,31.38,32.13,31.33s31.66-14.12,31.96-31.5h.02s-.22-83.86-.22-83.86h0Z"/>
    <path class="cls-3" d="m404.92,530.55c-.05-17.68-14.47-32.02-32.15-31.98s-32.02,14.47-31.98,32.14h0l.22,83.86h.02c.39,17.38,14.67,31.38,32.13,31.33,17.46-.05,31.66-14.12,31.96-31.5h.02s-.22-83.86-.22-83.86h0Z"/>
    <path class="cls-3" d="m653.9,529.89c-.05-17.68-14.47-32.02-32.15-31.98s-32.02,14.47-31.98,32.14h0l.22,83.86h.02c.39,17.38,14.67,31.38,32.13,31.33,17.46-.05,31.66-14.12,31.96-31.5h.02s-.22-83.86-.22-83.86h0Z"/>
    <path class="cls-3" d="m153.63,531.05c-.05-17.68-14.47-32.02-32.15-31.98-17.68.05-32.02,14.47-31.98,32.15,0,.06,0,.11,0,.17h0s.66,249.47.66,249.47c.05,17.68,14.47,32.02,32.15,31.98s32.02-14.47,31.98-32.15l-.66-249.47h0c0-.06,0-.11,0-.17Z"/>
    <path class="cls-3" d="m239.02,863.65c-.05-17.61-14.36-31.91-31.95-31.97h0s-167.09.43-167.09.43h0c-.07,0-.13,0-.2,0-17.68.05-32.02,14.47-31.98,32.15s14.47,32.02,32.15,31.98c.07,0,.13,0,.2,0h0s167.09-.43,167.09-.43h0c17.59-.16,31.82-14.53,31.78-32.15Z"/>
    <path class="cls-3" d="m487.81,530.17c-.05-17.68-14.47-32.02-32.15-31.98-17.68.05-32.02,14.47-31.98,32.15,0,.06,0,.11,0,.17h0s.66,249.47.66,249.47c.05,17.68,14.47,32.02,32.15,31.98,17.68-.05,32.02-14.47,31.98-32.15l-.66-249.47h0c0-.06,0-.11,0-.17Z"/>
    <path class="cls-3" d="m205.26,812.81c17.61-.05,31.91-14.36,31.97-31.95h0s-.44-167.09-.44-167.09h0c0-.07,0-.13,0-.2-.05-17.68-14.47-32.02-32.15-31.98-17.68.05-32.02,14.47-31.98,32.15,0,.07,0,.13,0,.2h0s.44,167.09.44,167.09h0c.15,17.59,14.53,31.82,32.14,31.78Z"/>
    <path class="cls-3" d="m289.28,728.36c17.61-.05,31.91-14.36,31.97-31.95h0s-.44-167.09-.44-167.09h0c0-.07,0-.13,0-.2-.05-17.68-14.47-32.02-32.15-31.98-17.68.05-32.02,14.47-31.98,32.15,0,.07,0,.13,0,.2h0s.44,167.09.44,167.09h0c.15,17.59,14.53,31.82,32.14,31.78Z"/>
    <path class="cls-3" d="m205.2,562.97c-17.68.05-32.1-14.3-32.15-31.98-.05-17.68,14.3-32.1,31.98-32.15,17.68-.05,32.1,14.3,32.14,31.98.05,17.68-14.3,32.1-31.98,32.15Z"/>
    <path class="cls-3" d="m205.2,481.44c-17.68.05-32.1-14.3-32.15-31.98-.05-17.68,14.3-32.1,31.98-32.15,17.68-.05,32.1,14.3,32.14,31.98.05,17.68-14.3,32.1-31.98,32.15Z"/>
    <path class="cls-3" d="m372.72,728.96c-17.68.05-32.1-14.3-32.14-31.98-.05-17.68,14.3-32.1,31.98-32.14,17.68-.05,32.1,14.3,32.15,31.98.05,17.68-14.3,32.1-31.98,32.15Z"/>
    <circle class="cls-3" cx="38.68" cy="780.99" r="32.06"/>
    <path class="cls-3" d="m289.4,812.39c-17.68.05-32.1-14.3-32.15-31.98s14.3-32.1,31.98-32.15c17.68-.05,32.1,14.3,32.14,31.98s-14.3,32.1-31.98,32.15Z"/>
    <path class="cls-3" d="m372.94,812.17c-17.68.05-32.1-14.3-32.14-31.98s14.3-32.1,31.98-32.15c17.68-.05,32.1,14.3,32.15,31.98.05,17.68-14.3,32.1-31.98,32.15Z"/>
    <path class="cls-3" d="m372.94,895.1c-17.68.05-32.1-14.3-32.14-31.98s14.3-32.1,31.98-32.15c17.68-.05,32.1,14.3,32.15,31.98.05,17.68-14.3,32.1-31.98,32.15Z"/>
    <path class="cls-3" d="m372.94,978.02c-17.68.05-32.1-14.3-32.14-31.98s14.3-32.1,31.98-32.15c17.68-.05,32.1,14.3,32.15,31.98.05,17.68-14.3,32.1-31.98,32.15Z"/>
    <path class="cls-3" d="m540.03,811.73c-17.68.05-32.1-14.3-32.15-31.98-.05-17.68,14.3-32.1,31.98-32.15,17.68-.05,32.1,14.3,32.14,31.98.05,17.68-14.3,32.1-31.98,32.15Z"/>
    <path class="cls-3" d="m623.57,811.51c-17.68.05-32.1-14.3-32.14-31.98-.05-17.68,14.3-32.1,31.98-32.15,17.68-.05,32.1,14.3,32.15,31.98.05,17.68-14.3,32.1-31.98,32.15Z"/>
    <path class="cls-3" d="m289.62,895.6c-17.68.05-32.1-14.3-32.15-31.98s14.3-32.1,31.98-32.15c17.68-.05,32.1,14.3,32.14,31.98.05,17.68-14.3,32.1-31.98,32.15Z"/>
    <path class="cls-3" d="m539.1,645.47c-17.68.05-32.1-14.3-32.15-31.98-.05-17.68,14.3-32.1,31.98-32.15,17.68-.05,32.1,14.3,32.14,31.98.05,17.68-14.3,32.1-31.98,32.15Z"/>
    <path class="cls-3" d="m538.88,562.26c-17.68.05-32.1-14.3-32.15-31.98s14.3-32.1,31.98-32.15c17.68-.05,32.1,14.3,32.14,31.98.05,17.68-14.3,32.1-31.98,32.15Z"/>
    <path class="cls-3" d="m36.68,979.26c-17.68.05-32.1-14.3-32.15-31.98-.05-17.68,14.3-32.1,31.98-32.15,17.68-.05,32.1,14.3,32.14,31.98.05,17.68-14.3,32.1-31.98,32.15Z"/>
    <circle class="cls-3" cx="456.62" cy="863.1" r="32.06"/>
    <circle class="cls-3" cx="456.84" cy="946.07" r="32.06"/>
    <path class="cls-3" d="m70.31,614.48c-.05-17.68-14.47-32.02-32.15-31.98s-32.02,14.47-31.98,32.14h0l.22,83.86h.02c.39,17.38,14.67,31.38,32.13,31.33,17.46-.05,31.66-14.12,31.96-31.5h.02s-.22-83.86-.22-83.86h0Z"/>
    <path class="cls-3" d="m622.37,728.17c17.68-.05,32.02-14.47,31.98-32.15-.05-17.68-14.47-32.02-32.14-31.98h0l-83.86.22v.02c-17.38.39-31.38,14.67-31.33,32.13.05,17.46,14.12,31.66,31.5,31.96v.02s83.86-.22,83.86-.22h0Z"/>
    <path class="cls-3" d="m623.01,972.25c17.68-.05,32.02-14.47,31.98-32.15-.05-17.68-14.47-32.02-32.14-31.98h0l-83.86.22v.02c-17.38.39-31.38,14.67-31.33,32.13.05,17.46,14.12,31.66,31.5,31.96v.02s83.86-.22,83.86-.22h0Z"/>
    <path class="cls-3" d="m1073.56,528.79c-.05-17.68-14.47-32.02-32.15-31.98-17.68.05-32.02,14.47-31.98,32.14h0l.22,83.86h.02c.39,17.38,14.67,31.38,32.13,31.33,17.46-.05,31.66-14.12,31.96-31.5h.02s-.22-83.86-.22-83.86h0Z"/>
    <path class="cls-3" d="m1322.54,528.13c-.05-17.68-14.47-32.02-32.15-31.98-17.68.05-32.02,14.47-31.98,32.14h0l.22,83.86h.02c.39,17.38,14.67,31.38,32.13,31.33,17.46-.05,31.66-14.12,31.96-31.5h.02s-.22-83.86-.22-83.86h0Z"/>
    <path class="cls-3" d="m822.27,529.29c-.05-17.68-14.47-32.02-32.15-31.98-17.68.05-32.02,14.47-31.98,32.15,0,.06,0,.11,0,.17h0s.66,249.47.66,249.47c.05,17.68,14.47,32.02,32.15,31.98,17.68-.05,32.02-14.47,31.98-32.15l-.66-249.47h0c0-.06,0-.11,0-.17Z"/>
    <path class="cls-3" d="m1074.43,861.48c-.05-17.68-14.47-32.02-32.15-31.98-17.68.05-32.02,14.47-31.98,32.14h0l.22,83.86h.02c.39,17.38,14.67,31.38,32.13,31.33s31.66-14.12,31.96-31.5h.02s-.22-83.86-.22-83.86h0Z"/>
    <path class="cls-3" d="m1156.45,528.41c-.05-17.68-14.47-32.02-32.15-31.98-17.68.05-32.02,14.47-31.98,32.15,0,.06,0,.11,0,.17h0s.66,249.47.66,249.47c.05,17.68,14.47,32.02,32.15,31.98,17.68-.05,32.02-14.47,31.98-32.15l-.66-249.47h0c0-.06,0-.11,0-.17Z"/>
    <path class="cls-3" d="m905.47,622.21h0l-.44-167.09h0c0-.07,0-.13,0-.2-.05-17.68-14.47-32.02-32.15-31.98-17.68.05-32.02,14.47-31.98,32.15,0,.07,0,.13,0,.2h0l.41,156.7h0s.03,10.39.03,10.39h0l.41,156.9h0c.15,17.59,14.53,31.82,32.14,31.78,17.61-.05,31.91-14.36,31.97-31.95h0l-.41-156.9Z"/>
    <path class="cls-3" d="m957.91,726.6c17.61-.05,31.91-14.36,31.97-31.95h0s-.44-167.09-.44-167.09h0c0-.07,0-.13,0-.2-.05-17.68-14.47-32.02-32.15-31.98s-32.02,14.47-31.98,32.15c0,.07,0,.13,0,.2h0s.44,167.09.44,167.09h0c.15,17.59,14.53,31.82,32.14,31.78Z"/>
    <path class="cls-3" d="m1041.36,727.2c-17.68.05-32.1-14.3-32.14-31.98-.05-17.68,14.3-32.1,31.98-32.14,17.68-.05,32.1,14.3,32.15,31.98.05,17.68-14.3,32.1-31.98,32.15Z"/>
    <circle class="cls-3" cx="707.32" cy="779.23" r="32.06"/>
    <path class="cls-3" d="m1041.58,810.41c-17.68.05-32.1-14.3-32.14-31.98-.05-17.68,14.3-32.1,31.98-32.15,17.68-.05,32.1,14.3,32.15,31.98.05,17.68-14.3,32.1-31.98,32.15Z"/>
    <path class="cls-3" d="m1208.67,809.97c-17.68.05-32.1-14.3-32.15-31.98s14.3-32.1,31.98-32.15c17.68-.05,32.1,14.3,32.14,31.98s-14.3,32.1-31.98,32.15Z"/>
    <path class="cls-3" d="m1292.21,809.75c-17.68.05-32.1-14.3-32.14-31.98-.05-17.68,14.3-32.1,31.98-32.15,17.68-.05,32.1,14.3,32.15,31.98.05,17.68-14.3,32.1-31.98,32.15Z"/>
    <path class="cls-3" d="m1207.74,643.71c-17.68.05-32.1-14.3-32.15-31.98-.05-17.68,14.3-32.1,31.98-32.15,17.68-.05,32.1,14.3,32.14,31.98.05,17.68-14.3,32.1-31.98,32.15Z"/>
    <path class="cls-3" d="m1207.52,560.5c-17.68.05-32.1-14.3-32.15-31.98-.05-17.68,14.3-32.1,31.98-32.15,17.68-.05,32.1,14.3,32.14,31.98.05,17.68-14.3,32.1-31.98,32.15Z"/>
    <path class="cls-3" d="m705.31,977.5c-17.68.05-32.1-14.3-32.15-31.98-.05-17.68,14.3-32.1,31.98-32.15,17.68-.05,32.1,14.3,32.14,31.98.05,17.68-14.3,32.1-31.98,32.15Z"/>
    <circle class="cls-3" cx="1125.26" cy="861.34" r="32.06"/>
    <circle class="cls-3" cx="1125.48" cy="944.31" r="32.06"/>
    <path class="cls-3" d="m738.95,612.72c-.05-17.68-14.47-32.02-32.15-31.98-17.68.05-32.02,14.47-31.98,32.14h0l.22,83.86h.02c.39,17.38,14.67,31.38,32.13,31.33,17.46-.05,31.66-14.12,31.96-31.5h.02s-.22-83.86-.22-83.86h0Z"/>
    <path class="cls-3" d="m1291.01,726.41c17.68-.05,32.02-14.47,31.98-32.15-.05-17.68-14.47-32.02-32.14-31.98h0l-83.86.22v.02c-17.38.39-31.38,14.67-31.33,32.13.05,17.46,14.12,31.66,31.5,31.96v.02s83.86-.22,83.86-.22h0Z"/>
    <path class="cls-3" d="m1291.65,970.49c17.68-.05,32.02-14.47,31.98-32.15-.05-17.68-14.47-32.02-32.14-31.98h0l-83.86.22v.02c-17.38.39-31.38,14.67-31.33,32.13.05,17.46,14.12,31.66,31.5,31.96v.02s83.86-.22,83.86-.22h0Z"/>
    <path class="cls-3" d="m1629.65,970.49c17.68-.05,32.02-14.47,31.98-32.15-.05-17.68-14.47-32.02-32.14-31.98h0l-83.86.22v.02c-17.38.39-31.38,14.67-31.33,32.13.05,17.46,14.12,31.66,31.5,31.96v.02s83.86-.22,83.86-.22h0Z"/>
    <path class="cls-3" d="m1744.84,527.02c-.05-17.68-14.47-32.02-32.15-31.98-17.68.05-32.02,14.47-31.98,32.14h0l.22,83.86h.02c.39,17.38,14.67,31.38,32.13,31.33s31.66-14.12,31.96-31.5h.02s-.22-83.86-.22-83.86h0Z"/>
    <path class="cls-3" d="m1993.82,526.37c-.05-17.68-14.47-32.02-32.15-31.98-17.68.05-32.02,14.47-31.98,32.14h0l.22,83.86h.02c.39,17.38,14.67,31.38,32.13,31.33,17.46-.05,31.66-14.12,31.96-31.5h.02s-.22-83.86-.22-83.86h0Z"/>
    <path class="cls-3" d="m1493.55,527.52c-.05-17.68-14.47-32.02-32.15-31.98s-32.02,14.47-31.98,32.15c0,.06,0,.11,0,.17h0s.66,249.47.66,249.47c.05,17.68,14.47,32.02,32.15,31.98,17.68-.05,32.02-14.47,31.98-32.15l-.66-249.47h0c0-.06,0-.11,0-.17Z"/>
    <path class="cls-3" d="m1745.72,859.71c-.05-17.68-14.47-32.02-32.15-31.98-17.68.05-32.02,14.47-31.98,32.14h0l.22,83.86h.02c.39,17.38,14.67,31.38,32.13,31.33s31.66-14.12,31.96-31.5h.02s-.22-83.86-.22-83.86h0Z"/>
    <path class="cls-3" d="m1827.73,526.64c-.05-17.68-14.47-32.02-32.15-31.98-17.68.05-32.02,14.47-31.98,32.15,0,.06,0,.11,0,.17h0s.66,249.47.66,249.47c.05,17.68,14.47,32.02,32.15,31.98,17.68-.05,32.02-14.47,31.98-32.15l-.66-249.47h0c0-.06,0-.11,0-.17Z"/>
    <path class="cls-3" d="m1576.75,616.44h0l-.44-167.09h0c0-.07,0-.13,0-.2-.05-17.68-14.47-32.02-32.15-31.98-17.68.05-32.02,14.47-31.98,32.15,0,.07,0,.13,0,.2h0l.41,156.7h0s.03,10.39.03,10.39h0l.41,156.9h0c.15,17.59,14.53,31.82,32.14,31.78,17.61-.05,31.91-14.36,31.97-31.95h0l-.41-156.9Z"/>
    <path class="cls-3" d="m1629.2,724.83c17.61-.05,31.91-14.36,31.97-31.95h0s-.44-167.09-.44-167.09h0c0-.07,0-.13,0-.2-.05-17.68-14.47-32.02-32.15-31.98s-32.02,14.47-31.98,32.15c0,.07,0,.13,0,.2h0s.44,167.09.44,167.09h0c.15,17.59,14.53,31.82,32.14,31.78Z"/>
    <path class="cls-3" d="m1712.64,725.43c-17.68.05-32.1-14.3-32.14-31.98-.05-17.68,14.3-32.1,31.98-32.14,17.68-.05,32.1,14.3,32.15,31.98.05,17.68-14.3,32.1-31.98,32.15Z"/>
    <circle class="cls-3" cx="1378.61" cy="777.46" r="32.06"/>
    <path class="cls-3" d="m1629.32,808.86c-17.68.05-32.1-14.3-32.15-31.98-.05-17.68,14.3-32.1,31.98-32.15,17.68-.05,32.1,14.3,32.14,31.98.05,17.68-14.3,32.1-31.98,32.15Z"/>
    <path class="cls-3" d="m1712.86,808.65c-17.68.05-32.1-14.3-32.14-31.98-.05-17.68,14.3-32.1,31.98-32.15,17.68-.05,32.1,14.3,32.15,31.98.05,17.68-14.3,32.1-31.98,32.15Z"/>
    <path class="cls-3" d="m1879.95,808.21c-17.68.05-32.1-14.3-32.15-31.98-.05-17.68,14.3-32.1,31.98-32.15,17.68-.05,32.1,14.3,32.14,31.98.05,17.68-14.3,32.1-31.98,32.15Z"/>
    <path class="cls-3" d="m1963.49,807.99c-17.68.05-32.1-14.3-32.14-31.98-.05-17.68,14.3-32.1,31.98-32.15,17.68-.05,32.1,14.3,32.15,31.98.05,17.68-14.3,32.1-31.98,32.15Z"/>
    <path class="cls-3" d="m1629.54,892.08c-17.68.05-32.1-14.3-32.15-31.98-.05-17.68,14.3-32.1,31.98-32.15,17.68-.05,32.1,14.3,32.14,31.98.05,17.68-14.3,32.1-31.98,32.15Z"/>
    <path class="cls-3" d="m1879.02,641.95c-17.68.05-32.1-14.3-32.15-31.98-.05-17.68,14.3-32.1,31.98-32.15,17.68-.05,32.1,14.3,32.14,31.98.05,17.68-14.3,32.1-31.98,32.15Z"/>
    <path class="cls-3" d="m1878.8,558.73c-17.68.05-32.1-14.3-32.15-31.98-.05-17.68,14.3-32.1,31.98-32.15,17.68-.05,32.1,14.3,32.14,31.98.05,17.68-14.3,32.1-31.98,32.15Z"/>
    <path class="cls-3" d="m1462.67,975.73c-17.68.05-32.1-14.3-32.15-31.98-.05-17.68,14.3-32.1,31.98-32.15,17.68-.05,32.1,14.3,32.14,31.98.05,17.68-14.3,32.1-31.98,32.15Z"/>
    <path class="cls-3" d="m1374.5,975.73c-17.68.05-32.1-14.3-32.15-31.98-.05-17.68,14.3-32.1,31.98-32.15,17.68-.05,32.1,14.3,32.14,31.98.05,17.68-14.3,32.1-31.98,32.15Z"/>
    <circle class="cls-3" cx="1796.54" cy="859.58" r="32.06"/>
    <circle class="cls-3" cx="1796.76" cy="942.54" r="32.06"/>
    <path class="cls-3" d="m1410.23,610.95c-.05-17.68-14.47-32.02-32.15-31.98-17.68.05-32.02,14.47-31.98,32.14h0l.22,83.86h.02c.39,17.38,14.67,31.38,32.13,31.33,17.46-.05,31.66-14.12,31.96-31.5h.02s-.22-83.86-.22-83.86h0Z"/>
    <path class="cls-3" d="m1962.29,724.64c17.68-.05,32.02-14.47,31.98-32.15-.05-17.68-14.47-32.02-32.14-31.98h0l-83.86.22v.02c-17.38.39-31.38,14.67-31.33,32.13s14.12,31.66,31.5,31.96v.02s83.86-.22,83.86-.22h0Z"/>
    <path class="cls-3" d="m1962.29,888.4c17.68-.05,32.02-14.47,31.98-32.15-.05-17.68-14.47-32.02-32.14-31.98h0l-83.86.22v.02c-17.38.39-31.38,14.67-31.33,32.13s14.12,31.66,31.5,31.96v.02s83.86-.22,83.86-.22h0Z"/>
    <path class="cls-3" d="m1962.93,968.72c17.68-.05,32.02-14.47,31.98-32.15-.05-17.68-14.47-32.02-32.14-31.98h0l-83.86.22v.02c-17.38.39-31.38,14.67-31.33,32.13s14.12,31.66,31.5,31.96v.02s83.86-.22,83.86-.22h0Z"/>
  </g>
</svg>