<?xml version="1.0" encoding="UTF-8"?>
<svg id="Laag_1" data-name="Laag 1" xmlns="http://www.w3.org/2000/svg" viewBox="0 0 2000 987">
  <defs>
    <style>
      .cls-1 {
        opacity: .12;
      }

      .cls-2 {
        fill: #ff6902;
      }

      .cls-2, .cls-3 {
        stroke-width: 0px;
      }

      .cls-3 {
        fill: #eaf0f0;
      }
    </style>
  </defs>
  <rect class="cls-2" x="-7.5" y="-8" width="2017" height="1003"/>
  <g class="cls-1">
    <path class="cls-3" d="m874.64,979.34c17.68,0,32.06-14.38,32.06-32.06,0-17.68-14.38-32.06-32.06-32.06h-83.86s0,.02,0,.02c-17.38.35-31.41,14.58-31.41,32.04,0,17.46,14.03,31.7,31.41,32.05v.02s83.86,0,83.86,0h0Z"/>
    <path class="cls-3" d="m87.51,949.03c0,17.61,14.27,31.95,31.86,32.06h0s167.09,0,167.09,0h0c.07,0,.13,0,.2,0,17.68,0,32.06-14.38,32.06-32.06,0-17.68-14.38-32.06-32.06-32.06-.07,0-.13,0-.2,0h0s-167.09,0-167.09,0h0c-17.59.11-31.86,14.45-31.86,32.06Z"/>
    <path class="cls-3" d="m957.37,972.22c17.61-.05,31.91-14.36,31.97-31.95h0s-.44-167.09-.44-167.09h0c0-.07,0-.13,0-.2-.05-17.68-14.47-32.02-32.15-31.98-17.68.05-32.02,14.47-31.98,32.15,0,.07,0,.13,0,.2h0s.44,167.09.44,167.09h0c.15,17.59,14.53,31.82,32.14,31.78Z"/>
    <path class="cls-3" d="m403.88,42.67c-.05-17.68-14.47-32.02-32.15-31.98-17.68.05-32.02,14.47-31.98,32.14h0l.22,83.86h.02c.39,17.38,14.67,31.38,32.13,31.33s31.66-14.12,31.96-31.5h.02s-.22-83.86-.22-83.86h0Z"/>
    <path class="cls-3" d="m652.86,42.01c-.05-17.68-14.47-32.02-32.15-31.98-17.68.05-32.02,14.47-31.98,32.14h0l.22,83.86h.02c.39,17.38,14.67,31.38,32.13,31.33,17.46-.05,31.66-14.12,31.96-31.5h.02s-.22-83.86-.22-83.86h0Z"/>
    <path class="cls-3" d="m152.59,43.17c-.05-17.68-14.47-32.02-32.15-31.98-17.68.05-32.02,14.47-31.98,32.15,0,.06,0,.11,0,.17h0s.66,249.47.66,249.47c.05,17.68,14.47,32.02,32.15,31.98s32.02-14.47,31.98-32.15l-.66-249.47h0c0-.06,0-.11,0-.17Z"/>
    <path class="cls-3" d="m404.76,368.36c-.05-17.68-14.47-32.02-32.15-31.98s-32.02,14.47-31.98,32.14h0l.22,83.86h.02c.39,17.38,14.67,31.38,32.13,31.33s31.66-14.12,31.96-31.5h.02s-.22-83.86-.22-83.86h0Z"/>
    <path class="cls-3" d="m237.98,371.77c-.05-17.61-14.36-31.91-31.95-31.97h0s-167.09.43-167.09.43h0c-.07,0-.13,0-.2,0-17.68.05-32.02,14.47-31.98,32.15.05,17.68,14.47,32.02,32.15,31.98.07,0,.13,0,.2,0h0s167.09-.43,167.09-.43h0c17.59-.16,31.82-14.53,31.78-32.15Z"/>
    <path class="cls-3" d="m486.77,42.29c-.05-17.68-14.47-32.02-32.15-31.98-17.68.05-32.02,14.47-31.98,32.15,0,.06,0,.11,0,.17h0s.66,249.47.66,249.47c.05,17.68,14.47,32.02,32.15,31.98s32.02-14.47,31.98-32.15l-.66-249.47h0c0-.06,0-.11,0-.17Z"/>
    <path class="cls-3" d="m204.23,324.93c17.61-.05,31.91-14.36,31.97-31.95h0s-.44-167.09-.44-167.09h0c0-.07,0-.13,0-.2-.05-17.68-14.47-32.02-32.15-31.98s-32.02,14.47-31.98,32.15c0,.07,0,.13,0,.2h0s.44,167.09.44,167.09h0c.15,17.59,14.53,31.82,32.14,31.78Z"/>
    <path class="cls-3" d="m288.24,240.48c17.61-.05,31.91-14.36,31.97-31.95h0s-.44-167.09-.44-167.09h0c0-.07,0-.13,0-.2-.05-17.68-14.47-32.02-32.15-31.98-17.68.05-32.02,14.47-31.98,32.15,0,.07,0,.13,0,.2h0s.44,167.09.44,167.09h0c.15,17.59,14.53,31.82,32.14,31.78Z"/>
    <circle class="cls-3" cx="36.99" cy="43.47" r="32.06"/>
    <path class="cls-3" d="m204.16,75.09c-17.68.05-32.1-14.3-32.15-31.98s14.3-32.1,31.98-32.15c17.68-.05,32.1,14.3,32.14,31.98.05,17.68-14.3,32.1-31.98,32.15Z"/>
    <path class="cls-3" d="m371.68,241.08c-17.68.05-32.1-14.3-32.14-31.98-.05-17.68,14.3-32.1,31.98-32.14,17.68-.05,32.1,14.3,32.15,31.98.05,17.68-14.3,32.1-31.98,32.15Z"/>
    <circle class="cls-3" cx="37.64" cy="293.11" r="32.06"/>
    <path class="cls-3" d="m288.36,324.51c-17.68.05-32.1-14.3-32.15-31.98-.05-17.68,14.3-32.1,31.98-32.15,17.68-.05,32.1,14.3,32.14,31.98.05,17.68-14.3,32.1-31.98,32.15Z"/>
    <path class="cls-3" d="m371.9,324.29c-17.68.05-32.1-14.3-32.14-31.98s14.3-32.1,31.98-32.15c17.68-.05,32.1,14.3,32.15,31.98.05,17.68-14.3,32.1-31.98,32.15Z"/>
    <path class="cls-3" d="m538.99,323.85c-17.68.05-32.1-14.3-32.15-31.98-.05-17.68,14.3-32.1,31.98-32.15,17.68-.05,32.1,14.3,32.14,31.98s-14.3,32.1-31.98,32.15Z"/>
    <path class="cls-3" d="m622.53,323.63c-17.68.05-32.1-14.3-32.14-31.98-.05-17.68,14.3-32.1,31.98-32.15,17.68-.05,32.1,14.3,32.15,31.98.05,17.68-14.3,32.1-31.98,32.15Z"/>
    <path class="cls-3" d="m288.8,482.94c-17.68.05-32.1-14.3-32.15-31.98-.05-17.68,14.3-32.1,31.98-32.15,17.68-.05,32.1,14.3,32.14,31.98s-14.3,32.1-31.98,32.15Z"/>
    <path class="cls-3" d="m288.58,403.72c-17.68.05-32.1-14.3-32.15-31.98s14.3-32.1,31.98-32.15c17.68-.05,32.1,14.3,32.14,31.98.05,17.68-14.3,32.1-31.98,32.15Z"/>
    <path class="cls-3" d="m538.06,157.59c-17.68.05-32.1-14.3-32.15-31.98-.05-17.68,14.3-32.1,31.98-32.15,17.68-.05,32.1,14.3,32.14,31.98s-14.3,32.1-31.98,32.15Z"/>
    <path class="cls-3" d="m537.84,74.38c-17.68.05-32.1-14.3-32.15-31.98-.05-17.68,14.3-32.1,31.98-32.15,17.68-.05,32.1,14.3,32.14,31.98s-14.3,32.1-31.98,32.15Z"/>
    <path class="cls-3" d="m121.71,484.38c-17.68.05-32.1-14.3-32.15-31.98-.05-17.68,14.3-32.1,31.98-32.15,17.68-.05,32.1,14.3,32.14,31.98.05,17.68-14.3,32.1-31.98,32.15Z"/>
    <circle class="cls-3" cx="455.58" cy="371.22" r="32.06"/>
    <circle class="cls-3" cx="455.8" cy="450.19" r="32.06"/>
    <path class="cls-3" d="m69.27,126.6c-.05-17.68-14.47-32.02-32.15-31.98S5.1,109.09,5.15,126.77h0l.22,83.86h.02c.39,17.38,14.67,31.38,32.13,31.33,17.46-.05,31.66-14.12,31.96-31.5h.02s-.22-83.86-.22-83.86h0Z"/>
    <path class="cls-3" d="m621.33,240.29c17.68-.05,32.02-14.47,31.98-32.15-.05-17.68-14.47-32.02-32.14-31.98h0l-83.86.22v.02c-17.38.39-31.38,14.67-31.33,32.13.05,17.46,14.12,31.66,31.5,31.96v.02s83.86-.22,83.86-.22h0Z"/>
    <path class="cls-3" d="m621.97,483.37c17.68-.05,32.02-14.47,31.98-32.15-.05-17.68-14.47-32.02-32.14-31.98h0l-83.86.22v.02c-17.38.39-31.38,14.67-31.33,32.13s14.12,31.66,31.5,31.96v.02s83.86-.22,83.86-.22h0Z"/>
    <path class="cls-3" d="m70.14,451.45c-.05-17.68-14.47-32.02-32.15-31.98s-32.02,14.47-31.98,32.14h0l.22,83.86h.02c.39,17.38,14.67,31.38,32.13,31.33,17.46-.05,31.66-14.12,31.96-31.5h.02s-.22-83.86-.22-83.86h0Z"/>
    <path class="cls-3" d="m1072.52,40.91c-.05-17.68-14.47-32.02-32.15-31.98-17.68.05-32.02,14.47-31.98,32.14h0l.22,83.86h.02c.39,17.38,14.67,31.38,32.13,31.33s31.66-14.12,31.96-31.5h.02s-.22-83.86-.22-83.86h0Z"/>
    <path class="cls-3" d="m1321.5,40.26c-.05-17.68-14.47-32.02-32.15-31.98-17.68.05-32.02,14.47-31.98,32.14h0l.22,83.86h.02c.39,17.38,14.67,31.38,32.13,31.33,17.46-.05,31.66-14.12,31.96-31.5h.02s-.22-83.86-.22-83.86h0Z"/>
    <path class="cls-3" d="m821.23,41.41c-.05-17.68-14.47-32.02-32.15-31.98-17.68.05-32.02,14.47-31.98,32.15,0,.06,0,.11,0,.17h0s.66,249.47.66,249.47c.05,17.68,14.47,32.02,32.15,31.98,17.68-.05,32.02-14.47,31.98-32.15l-.66-249.47h0c0-.06,0-.11,0-.17Z"/>
    <path class="cls-3" d="m1073.39,368.6c-.05-17.68-14.47-32.02-32.15-31.98-17.68.05-32.02,14.47-31.98,32.14h0l.22,83.86h.02c.39,17.38,14.67,31.38,32.13,31.33s31.66-14.12,31.96-31.5h.02s-.22-83.86-.22-83.86h0Z"/>
    <path class="cls-3" d="m1155.41,40.53c-.05-17.68-14.47-32.02-32.15-31.98-17.68.05-32.02,14.47-31.98,32.15,0,.06,0,.11,0,.17h0s.66,249.47.66,249.47c.05,17.68,14.47,32.02,32.15,31.98,17.68-.05,32.02-14.47,31.98-32.15l-.66-249.47h0c0-.06,0-.11,0-.17Z"/>
    <path class="cls-3" d="m872.87,323.17c17.61-.05,31.91-14.36,31.97-31.95h0s-.44-167.09-.44-167.09h0c0-.07,0-.13,0-.2-.05-17.68-14.47-32.02-32.15-31.98-17.68.05-32.02,14.47-31.98,32.15,0,.07,0,.13,0,.2h0s.44,167.09.44,167.09h0c.15,17.59,14.53,31.82,32.14,31.78Z"/>
    <path class="cls-3" d="m956.88,238.72c17.61-.05,31.91-14.36,31.97-31.95h0s-.44-167.09-.44-167.09h0c0-.07,0-.13,0-.2-.05-17.68-14.47-32.02-32.15-31.98s-32.02,14.47-31.98,32.15c0,.07,0,.13,0,.2h0s.44,167.09.44,167.09h0c.15,17.59,14.53,31.82,32.14,31.78Z"/>
    <circle class="cls-3" cx="705.63" cy="41.71" r="32.06"/>
    <path class="cls-3" d="m872.8,73.33c-17.68.05-32.1-14.3-32.15-31.98s14.3-32.1,31.98-32.15c17.68-.05,32.1,14.3,32.14,31.98.05,17.68-14.3,32.1-31.98,32.15Z"/>
    <path class="cls-3" d="m1040.32,239.32c-17.68.05-32.1-14.3-32.14-31.98-.05-17.68,14.3-32.1,31.98-32.14,17.68-.05,32.1,14.3,32.15,31.98.05,17.68-14.3,32.1-31.98,32.15Z"/>
    <circle class="cls-3" cx="706.28" cy="291.35" r="32.06"/>
    <path class="cls-3" d="m957,322.75c-17.68.05-32.1-14.3-32.15-31.98-.05-17.68,14.3-32.1,31.98-32.15,17.68-.05,32.1,14.3,32.14,31.98s-14.3,32.1-31.98,32.15Z"/>
    <path class="cls-3" d="m1040.54,322.53c-17.68.05-32.1-14.3-32.14-31.98-.05-17.68,14.3-32.1,31.98-32.15,17.68-.05,32.1,14.3,32.15,31.98s-14.3,32.1-31.98,32.15Z"/>
    <path class="cls-3" d="m1207.63,322.09c-17.68.05-32.1-14.3-32.15-31.98-.05-17.68,14.3-32.1,31.98-32.15,17.68-.05,32.1,14.3,32.14,31.98.05,17.68-14.3,32.1-31.98,32.15Z"/>
    <path class="cls-3" d="m1291.17,321.87c-17.68.05-32.1-14.3-32.14-31.98-.05-17.68,14.3-32.1,31.98-32.15,17.68-.05,32.1,14.3,32.15,31.98s-14.3,32.1-31.98,32.15Z"/>
    <path class="cls-3" d="m957.44,482.18c-17.68.05-32.1-14.3-32.15-31.98-.05-17.68,14.3-32.1,31.98-32.15,17.68-.05,32.1,14.3,32.14,31.98s-14.3,32.1-31.98,32.15Z"/>
    <path class="cls-3" d="m957.22,401.96c-17.68.05-32.1-14.3-32.15-31.98s14.3-32.1,31.98-32.15c17.68-.05,32.1,14.3,32.14,31.98.05,17.68-14.3,32.1-31.98,32.15Z"/>
    <path class="cls-3" d="m1206.7,155.83c-17.68.05-32.1-14.3-32.15-31.98-.05-17.68,14.3-32.1,31.98-32.15,17.68-.05,32.1,14.3,32.14,31.98s-14.3,32.1-31.98,32.15Z"/>
    <path class="cls-3" d="m1206.48,72.62c-17.68.05-32.1-14.3-32.15-31.98-.05-17.68,14.3-32.1,31.98-32.15,17.68-.05,32.1,14.3,32.14,31.98.05,17.68-14.3,32.1-31.98,32.15Z"/>
    <path class="cls-3" d="m790.35,482.62c-17.68.05-32.1-14.3-32.15-31.98-.05-17.68,14.3-32.1,31.98-32.15,17.68-.05,32.1,14.3,32.14,31.98.05,17.68-14.3,32.1-31.98,32.15Z"/>
    <circle class="cls-3" cx="1124.22" cy="368.46" r="32.06"/>
    <circle class="cls-3" cx="1124.44" cy="450.43" r="32.06"/>
    <path class="cls-3" d="m737.91,124.84c-.05-17.68-14.47-32.02-32.15-31.98s-32.02,14.47-31.98,32.14h0l.22,83.86h.02c.39,17.38,14.67,31.38,32.13,31.33,17.46-.05,31.66-14.12,31.96-31.5h.02s-.22-83.86-.22-83.86h0Z"/>
    <path class="cls-3" d="m1289.97,238.53c17.68-.05,32.02-14.47,31.98-32.15-.05-17.68-14.47-32.02-32.14-31.98h0l-83.86.22v.02c-17.38.39-31.38,14.67-31.33,32.13.05,17.46,14.12,31.66,31.5,31.96v.02s83.86-.22,83.86-.22h0Z"/>
    <path class="cls-3" d="m1293.61,482.61c17.68-.05,32.02-14.47,31.98-32.15-.05-17.68-14.47-32.02-32.14-31.98h0l-83.86.22v.02c-17.38.39-31.38,14.67-31.33,32.13.05,17.46,14.12,31.66,31.5,31.96v.02s83.86-.22,83.86-.22h0Z"/>
    <path class="cls-3" d="m739.28,451.19c-.05-17.68-14.47-32.02-32.15-31.98s-32.02,14.47-31.98,32.14h0l.22,83.86h.02c.39,17.38,14.67,31.38,32.13,31.33s31.66-14.12,31.96-31.5h.02s-.22-83.86-.22-83.86h0Z"/>
    <path class="cls-3" d="m1743.8,39.14c-.05-17.68-14.47-32.02-32.15-31.98-17.68.05-32.02,14.47-31.98,32.14h0l.22,83.86h.02c.39,17.38,14.67,31.38,32.13,31.33s31.66-14.12,31.96-31.5h.02s-.22-83.86-.22-83.86h0Z"/>
    <path class="cls-3" d="m1992.78,38.49c-.05-17.68-14.47-32.02-32.15-31.98-17.68.05-32.02,14.47-31.98,32.14h0l.22,83.86h.02c.39,17.38,14.67,31.38,32.13,31.33,17.46-.05,31.66-14.12,31.96-31.5h.02s-.22-83.86-.22-83.86h0Z"/>
    <path class="cls-3" d="m1492.51,39.64c-.05-17.68-14.47-32.02-32.15-31.98-17.68.05-32.02,14.47-31.98,32.15,0,.06,0,.11,0,.17h0s.66,249.47.66,249.47c.05,17.68,14.47,32.02,32.15,31.98,17.68-.05,32.02-14.47,31.98-32.15l-.66-249.47h0c0-.06,0-.11,0-.17Z"/>
    <path class="cls-3" d="m1744.68,366.83c-.05-17.68-14.47-32.02-32.15-31.98-17.68.05-32.02,14.47-31.98,32.14h0l.22,83.86h.02c.39,17.38,14.67,31.38,32.13,31.33,17.46-.05,31.66-14.12,31.96-31.5h.02s-.22-83.86-.22-83.86h0Z"/>
    <path class="cls-3" d="m1530.46,336.17h0s-324.32.17-324.32.17h0c-.07,0-.13,0-.2,0-17.68.05-32.02,14.47-31.98,32.15.05,17.68,14.47,32.02,32.15,31.98.07,0,.13,0,.2,0h0s324.32.08,324.32.08h0c17.59-.16,31.82-14.59,31.78-32.27-.05-17.68-14.36-32.03-31.95-32.09Z"/>
    <path class="cls-3" d="m1530.46,830.48h0s-324.32.17-324.32.17h0c-.07,0-.13,0-.2,0-17.68.05-32.02,14.47-31.98,32.15.05,17.68,14.47,32.02,32.15,31.98.07,0,.13,0,.2,0h0s324.32.08,324.32.08h0c17.59-.16,31.82-14.59,31.78-32.27-.05-17.68-14.36-32.03-31.95-32.09Z"/>
    <path class="cls-3" d="m868.1,338.17h0s-324.32.17-324.32.17h0c-.07,0-.13,0-.2,0-17.68.05-32.02,14.47-31.98,32.15.05,17.68,14.47,32.02,32.15,31.98.07,0,.13,0,.2,0h0s324.32.08,324.32.08h0c17.59-.16,31.82-14.59,31.78-32.27-.05-17.68-14.36-32.03-31.95-32.09Z"/>
    <path class="cls-3" d="m868.1,829.43h0s-324.32.17-324.32.17h0c-.07,0-.13,0-.2,0-17.68.05-32.02,14.47-31.98,32.15.05,17.68,14.47,32.02,32.15,31.98.07,0,.13,0,.2,0h0s324.32.08,324.32.08h0c17.59-.16,31.82-14.59,31.78-32.27-.05-17.68-14.36-32.03-31.95-32.09Z"/>
    <path class="cls-3" d="m1826.69,38.76c-.05-17.68-14.47-32.02-32.15-31.98-17.68.05-32.02,14.47-31.98,32.15,0,.06,0,.11,0,.17h0s.66,249.47.66,249.47c.05,17.68,14.47,32.02,32.15,31.98,17.68-.05,32.02-14.47,31.98-32.15l-.66-249.47h0c0-.06,0-.11,0-.17Z"/>
    <path class="cls-3" d="m1544.15,321.41c17.61-.05,31.91-14.36,31.97-31.95h0s-.44-167.09-.44-167.09h0c0-.07,0-.13,0-.2-.05-17.68-14.47-32.02-32.15-31.98-17.68.05-32.02,14.47-31.98,32.15,0,.07,0,.13,0,.2h0s.44,167.09.44,167.09h0c.15,17.59,14.53,31.82,32.14,31.78Z"/>
    <path class="cls-3" d="m1628.16,236.95c17.61-.05,31.91-14.36,31.97-31.95h0s-.44-167.09-.44-167.09h0c0-.07,0-.13,0-.2-.05-17.68-14.47-32.02-32.15-31.98s-32.02,14.47-31.98,32.15c0,.07,0,.13,0,.2h0s.44,167.09.44,167.09h0c.15,17.59,14.53,31.82,32.14,31.78Z"/>
    <circle class="cls-3" cx="1376.91" cy="39.94" r="32.06"/>
    <path class="cls-3" d="m1544.08,71.57c-17.68.05-32.1-14.3-32.15-31.98-.05-17.68,14.3-32.1,31.98-32.15,17.68-.05,32.1,14.3,32.14,31.98.05,17.68-14.3,32.1-31.98,32.15Z"/>
    <path class="cls-3" d="m1711.61,237.55c-17.68.05-32.1-14.3-32.14-31.98-.05-17.68,14.3-32.1,31.98-32.14,17.68-.05,32.1,14.3,32.15,31.98.05,17.68-14.3,32.1-31.98,32.15Z"/>
    <circle class="cls-3" cx="1377.57" cy="289.58" r="32.06"/>
    <path class="cls-3" d="m1628.28,320.99c-17.68.05-32.1-14.3-32.15-31.98-.05-17.68,14.3-32.1,31.98-32.15,17.68-.05,32.1,14.3,32.14,31.98s-14.3,32.1-31.98,32.15Z"/>
    <path class="cls-3" d="m1711.82,320.77c-17.68.05-32.1-14.3-32.14-31.98-.05-17.68,14.3-32.1,31.98-32.15,17.68-.05,32.1,14.3,32.15,31.98.05,17.68-14.3,32.1-31.98,32.15Z"/>
    <path class="cls-3" d="m1878.91,320.33c-17.68.05-32.1-14.3-32.15-31.98-.05-17.68,14.3-32.1,31.98-32.15,17.68-.05,32.1,14.3,32.14,31.98.05,17.68-14.3,32.1-31.98,32.15Z"/>
    <path class="cls-3" d="m1962.45,320.11c-17.68.05-32.1-14.3-32.14-31.98-.05-17.68,14.3-32.1,31.98-32.15,17.68-.05,32.1,14.3,32.15,31.98.05,17.68-14.3,32.1-31.98,32.15Z"/>
    <path class="cls-3" d="m1628.72,482.41c-17.68.05-32.1-14.3-32.15-31.98-.05-17.68,14.3-32.1,31.98-32.15,17.68-.05,32.1,14.3,32.14,31.98.05,17.68-14.3,32.1-31.98,32.15Z"/>
    <path class="cls-3" d="m1628.5,400.2c-17.68.05-32.1-14.3-32.15-31.98-.05-17.68,14.3-32.1,31.98-32.15,17.68-.05,32.1,14.3,32.14,31.98.05,17.68-14.3,32.1-31.98,32.15Z"/>
    <path class="cls-3" d="m1877.98,154.07c-17.68.05-32.1-14.3-32.15-31.98-.05-17.68,14.3-32.1,31.98-32.15,17.68-.05,32.1,14.3,32.14,31.98.05,17.68-14.3,32.1-31.98,32.15Z"/>
    <path class="cls-3" d="m1877.76,70.85c-17.68.05-32.1-14.3-32.15-31.98-.05-17.68,14.3-32.1,31.98-32.15,17.68-.05,32.1,14.3,32.14,31.98.05,17.68-14.3,32.1-31.98,32.15Z"/>
    <path class="cls-3" d="m1461.63,482.85c-17.68.05-32.1-14.3-32.15-31.98-.05-17.68,14.3-32.1,31.98-32.15,17.68-.05,32.1,14.3,32.14,31.98s-14.3,32.1-31.98,32.15Z"/>
    <circle class="cls-3" cx="1795.5" cy="369.7" r="32.06"/>
    <circle class="cls-3" cx="1795.72" cy="450.66" r="32.06"/>
    <path class="cls-3" d="m1409.19,123.07c-.05-17.68-14.47-32.02-32.15-31.98-17.68.05-32.02,14.47-31.98,32.14h0l.22,83.86h.02c.39,17.38,14.67,31.38,32.13,31.33s31.66-14.12,31.96-31.5h.02s-.22-83.86-.22-83.86h0Z"/>
    <path class="cls-3" d="m1961.25,236.77c17.68-.05,32.02-14.47,31.98-32.15-.05-17.68-14.47-32.02-32.14-31.98h0l-83.86.22v.02c-17.38.39-31.38,14.67-31.33,32.13.05,17.46,14.12,31.66,31.5,31.96v.02s83.86-.22,83.86-.22h0Z"/>
    <path class="cls-3" d="m1961.89,482.84c17.68-.05,32.02-14.47,31.98-32.15-.05-17.68-14.47-32.02-32.14-31.98h0l-83.86.22v.02c-17.38.39-31.38,14.67-31.33,32.13.05,17.46,14.12,31.66,31.5,31.96v.02s83.86-.22,83.86-.22h0Z"/>
    <path class="cls-3" d="m1961.89,400.02c17.68-.05,32.02-14.47,31.98-32.15-.05-17.68-14.47-32.02-32.14-31.98h0l-83.86.22v.02c-17.38.39-31.38,14.67-31.33,32.13.05,17.46,14.12,31.66,31.5,31.96v.02s83.86-.22,83.86-.22h0Z"/>
    <path class="cls-3" d="m1410.07,453.93c-.05-17.68-14.47-32.02-32.15-31.98-17.68.05-32.02,14.47-31.98,32.14h0l.22,83.86h.02c.39,17.38,14.67,31.38,32.13,31.33s31.66-14.12,31.96-31.5h.02s-.22-83.86-.22-83.86h0Z"/>
    <path class="cls-3" d="m405.17,532.55c-.05-17.68-14.47-32.02-32.15-31.98s-32.02,14.47-31.98,32.14h0l.22,83.86h.02c.39,17.38,14.67,31.38,32.13,31.33,17.46-.05,31.66-14.12,31.96-31.5h.02s-.22-83.86-.22-83.86h0Z"/>
    <path class="cls-3" d="m654.15,531.89c-.05-17.68-14.47-32.02-32.15-31.98s-32.02,14.47-31.98,32.14h0l.22,83.86h.02c.39,17.38,14.67,31.38,32.13,31.33,17.46-.05,31.66-14.12,31.96-31.5h.02s-.22-83.86-.22-83.86h0Z"/>
    <path class="cls-3" d="m153.88,533.05c-.05-17.68-14.47-32.02-32.15-31.98-17.68.05-32.02,14.47-31.98,32.15,0,.06,0,.11,0,.17h0s.66,249.47.66,249.47c.05,17.68,14.47,32.02,32.15,31.98s32.02-14.47,31.98-32.15l-.66-249.47h0c0-.06,0-.11,0-.17Z"/>
    <path class="cls-3" d="m239.27,865.65c-.05-17.61-14.36-31.91-31.95-31.97h0s-167.09.43-167.09.43h0c-.07,0-.13,0-.2,0-17.68.05-32.02,14.47-31.98,32.15s14.47,32.02,32.15,31.98c.07,0,.13,0,.2,0h0s167.09-.43,167.09-.43h0c17.59-.16,31.82-14.53,31.78-32.15Z"/>
    <path class="cls-3" d="m488.06,532.17c-.05-17.68-14.47-32.02-32.15-31.98-17.68.05-32.02,14.47-31.98,32.15,0,.06,0,.11,0,.17h0s.66,249.47.66,249.47c.05,17.68,14.47,32.02,32.15,31.98,17.68-.05,32.02-14.47,31.98-32.15l-.66-249.47h0c0-.06,0-.11,0-.17Z"/>
    <path class="cls-3" d="m205.51,814.81c17.61-.05,31.91-14.36,31.97-31.95h0s-.44-167.09-.44-167.09h0c0-.07,0-.13,0-.2-.05-17.68-14.47-32.02-32.15-31.98-17.68.05-32.02,14.47-31.98,32.15,0,.07,0,.13,0,.2h0s.44,167.09.44,167.09h0c.15,17.59,14.53,31.82,32.14,31.78Z"/>
    <path class="cls-3" d="m289.53,730.36c17.61-.05,31.91-14.36,31.97-31.95h0s-.44-167.09-.44-167.09h0c0-.07,0-.13,0-.2-.05-17.68-14.47-32.02-32.15-31.98-17.68.05-32.02,14.47-31.98,32.15,0,.07,0,.13,0,.2h0s.44,167.09.44,167.09h0c.15,17.59,14.53,31.82,32.14,31.78Z"/>
    <path class="cls-3" d="m205.45,564.97c-17.68.05-32.1-14.3-32.15-31.98-.05-17.68,14.3-32.1,31.98-32.15,17.68-.05,32.1,14.3,32.14,31.98.05,17.68-14.3,32.1-31.98,32.15Z"/>
    <path class="cls-3" d="m205.45,483.44c-17.68.05-32.1-14.3-32.15-31.98-.05-17.68,14.3-32.1,31.98-32.15,17.68-.05,32.1,14.3,32.14,31.98.05,17.68-14.3,32.1-31.98,32.15Z"/>
    <path class="cls-3" d="m372.97,730.96c-17.68.05-32.1-14.3-32.14-31.98-.05-17.68,14.3-32.1,31.98-32.14,17.68-.05,32.1,14.3,32.15,31.98.05,17.68-14.3,32.1-31.98,32.15Z"/>
    <circle class="cls-3" cx="38.93" cy="782.99" r="32.06"/>
    <path class="cls-3" d="m289.65,814.39c-17.68.05-32.1-14.3-32.15-31.98s14.3-32.1,31.98-32.15c17.68-.05,32.1,14.3,32.14,31.98s-14.3,32.1-31.98,32.15Z"/>
    <path class="cls-3" d="m373.19,814.17c-17.68.05-32.1-14.3-32.14-31.98-.05-17.68,14.3-32.1,31.98-32.15,17.68-.05,32.1,14.3,32.15,31.98.05,17.68-14.3,32.1-31.98,32.15Z"/>
    <path class="cls-3" d="m373.19,897.1c-17.68.05-32.1-14.3-32.14-31.98-.05-17.68,14.3-32.1,31.98-32.15,17.68-.05,32.1,14.3,32.15,31.98.05,17.68-14.3,32.1-31.98,32.15Z"/>
    <path class="cls-3" d="m373.19,980.02c-17.68.05-32.1-14.3-32.14-31.98-.05-17.68,14.3-32.1,31.98-32.15,17.68-.05,32.1,14.3,32.15,31.98.05,17.68-14.3,32.1-31.98,32.15Z"/>
    <path class="cls-3" d="m540.28,813.73c-17.68.05-32.1-14.3-32.15-31.98-.05-17.68,14.3-32.1,31.98-32.15,17.68-.05,32.1,14.3,32.14,31.98.05,17.68-14.3,32.1-31.98,32.15Z"/>
    <path class="cls-3" d="m623.82,813.51c-17.68.05-32.1-14.3-32.14-31.98s14.3-32.1,31.98-32.15c17.68-.05,32.1,14.3,32.15,31.98.05,17.68-14.3,32.1-31.98,32.15Z"/>
    <path class="cls-3" d="m289.87,897.6c-17.68.05-32.1-14.3-32.15-31.98s14.3-32.1,31.98-32.15c17.68-.05,32.1,14.3,32.14,31.98.05,17.68-14.3,32.1-31.98,32.15Z"/>
    <path class="cls-3" d="m539.35,647.47c-17.68.05-32.1-14.3-32.15-31.98-.05-17.68,14.3-32.1,31.98-32.15,17.68-.05,32.1,14.3,32.14,31.98.05,17.68-14.3,32.1-31.98,32.15Z"/>
    <path class="cls-3" d="m539.13,564.26c-17.68.05-32.1-14.3-32.15-31.98-.05-17.68,14.3-32.1,31.98-32.15,17.68-.05,32.1,14.3,32.14,31.98.05,17.68-14.3,32.1-31.98,32.15Z"/>
    <path class="cls-3" d="m36.93,981.26c-17.68.05-32.1-14.3-32.15-31.98s14.3-32.1,31.98-32.15c17.68-.05,32.1,14.3,32.14,31.98.05,17.68-14.3,32.1-31.98,32.15Z"/>
    <circle class="cls-3" cx="456.87" cy="865.1" r="32.06"/>
    <circle class="cls-3" cx="457.09" cy="948.07" r="32.06"/>
    <path class="cls-3" d="m70.56,616.48c-.05-17.68-14.47-32.02-32.15-31.98s-32.02,14.47-31.98,32.14h0l.22,83.86h.02c.39,17.38,14.67,31.38,32.13,31.33,17.46-.05,31.66-14.12,31.96-31.5h.02s-.22-83.86-.22-83.86h0Z"/>
    <path class="cls-3" d="m622.62,730.17c17.68-.05,32.02-14.47,31.98-32.15-.05-17.68-14.47-32.02-32.14-31.98h0l-83.86.22v.02c-17.38.39-31.38,14.67-31.33,32.13.05,17.46,14.12,31.66,31.5,31.96v.02s83.86-.22,83.86-.22h0Z"/>
    <path class="cls-3" d="m623.26,974.25c17.68-.05,32.02-14.47,31.98-32.15-.05-17.68-14.47-32.02-32.14-31.98h0l-83.86.22v.02c-17.38.39-31.38,14.67-31.33,32.13.05,17.46,14.12,31.66,31.5,31.96v.02s83.86-.22,83.86-.22h0Z"/>
    <path class="cls-3" d="m1073.81,530.79c-.05-17.68-14.47-32.02-32.15-31.98-17.68.05-32.02,14.47-31.98,32.14h0l.22,83.86h.02c.39,17.38,14.67,31.38,32.13,31.33,17.46-.05,31.66-14.12,31.96-31.5h.02s-.22-83.86-.22-83.86h0Z"/>
    <path class="cls-3" d="m1322.79,530.13c-.05-17.68-14.47-32.02-32.15-31.98-17.68.05-32.02,14.47-31.98,32.14h0l.22,83.86h.02c.39,17.38,14.67,31.38,32.13,31.33,17.46-.05,31.66-14.12,31.96-31.5h.02s-.22-83.86-.22-83.86h0Z"/>
    <path class="cls-3" d="m822.52,531.29c-.05-17.68-14.47-32.02-32.15-31.98-17.68.05-32.02,14.47-31.98,32.15,0,.06,0,.11,0,.17h0s.66,249.47.66,249.47c.05,17.68,14.47,32.02,32.15,31.98,17.68-.05,32.02-14.47,31.98-32.15l-.66-249.47h0c0-.06,0-.11,0-.17Z"/>
    <path class="cls-3" d="m1074.68,863.48c-.05-17.68-14.47-32.02-32.15-31.98-17.68.05-32.02,14.47-31.98,32.14h0l.22,83.86h.02c.39,17.38,14.67,31.38,32.13,31.33s31.66-14.12,31.96-31.5h.02s-.22-83.86-.22-83.86h0Z"/>
    <path class="cls-3" d="m1156.7,530.41c-.05-17.68-14.47-32.02-32.15-31.98-17.68.05-32.02,14.47-31.98,32.15,0,.06,0,.11,0,.17h0s.66,249.47.66,249.47c.05,17.68,14.47,32.02,32.15,31.98,17.68-.05,32.02-14.47,31.98-32.15l-.66-249.47h0c0-.06,0-.11,0-.17Z"/>
    <path class="cls-3" d="m905.72,624.21h0l-.44-167.09h0c0-.07,0-.13,0-.2-.05-17.68-14.47-32.02-32.15-31.98-17.68.05-32.02,14.47-31.98,32.15,0,.07,0,.13,0,.2h0l.41,156.7h0s.03,10.39.03,10.39h0l.41,156.9h0c.15,17.59,14.53,31.82,32.14,31.78,17.61-.05,31.91-14.36,31.97-31.95h0l-.41-156.9Z"/>
    <path class="cls-3" d="m958.16,728.6c17.61-.05,31.91-14.36,31.97-31.95h0s-.44-167.09-.44-167.09h0c0-.07,0-.13,0-.2-.05-17.68-14.47-32.02-32.15-31.98s-32.02,14.47-31.98,32.15c0,.07,0,.13,0,.2h0s.44,167.09.44,167.09h0c.15,17.59,14.53,31.82,32.14,31.78Z"/>
    <path class="cls-3" d="m1041.61,729.2c-17.68.05-32.1-14.3-32.14-31.98-.05-17.68,14.3-32.1,31.98-32.14,17.68-.05,32.1,14.3,32.15,31.98.05,17.68-14.3,32.1-31.98,32.15Z"/>
    <circle class="cls-3" cx="707.57" cy="781.23" r="32.06"/>
    <path class="cls-3" d="m1041.83,812.41c-17.68.05-32.1-14.3-32.14-31.98-.05-17.68,14.3-32.1,31.98-32.15,17.68-.05,32.1,14.3,32.15,31.98.05,17.68-14.3,32.1-31.98,32.15Z"/>
    <path class="cls-3" d="m1208.92,811.97c-17.68.05-32.1-14.3-32.15-31.98s14.3-32.1,31.98-32.15c17.68-.05,32.1,14.3,32.14,31.98.05,17.68-14.3,32.1-31.98,32.15Z"/>
    <path class="cls-3" d="m1292.46,811.75c-17.68.05-32.1-14.3-32.14-31.98-.05-17.68,14.3-32.1,31.98-32.15,17.68-.05,32.1,14.3,32.15,31.98s-14.3,32.1-31.98,32.15Z"/>
    <path class="cls-3" d="m1207.99,645.71c-17.68.05-32.1-14.3-32.15-31.98-.05-17.68,14.3-32.1,31.98-32.15,17.68-.05,32.1,14.3,32.14,31.98.05,17.68-14.3,32.1-31.98,32.15Z"/>
    <path class="cls-3" d="m1207.77,562.5c-17.68.05-32.1-14.3-32.15-31.98s14.3-32.1,31.98-32.15c17.68-.05,32.1,14.3,32.14,31.98.05,17.68-14.3,32.1-31.98,32.15Z"/>
    <path class="cls-3" d="m705.56,979.5c-17.68.05-32.1-14.3-32.15-31.98-.05-17.68,14.3-32.1,31.98-32.15,17.68-.05,32.1,14.3,32.14,31.98.05,17.68-14.3,32.1-31.98,32.15Z"/>
    <circle class="cls-3" cx="1125.51" cy="863.34" r="32.06"/>
    <circle class="cls-3" cx="1125.73" cy="946.31" r="32.06"/>
    <path class="cls-3" d="m739.2,614.72c-.05-17.68-14.47-32.02-32.15-31.98-17.68.05-32.02,14.47-31.98,32.14h0l.22,83.86h.02c.39,17.38,14.67,31.38,32.13,31.33,17.46-.05,31.66-14.12,31.96-31.5h.02s-.22-83.86-.22-83.86h0Z"/>
    <path class="cls-3" d="m1291.26,728.41c17.68-.05,32.02-14.47,31.98-32.15-.05-17.68-14.47-32.02-32.14-31.98h0l-83.86.22v.02c-17.38.39-31.38,14.67-31.33,32.13.05,17.46,14.12,31.66,31.5,31.96v.02s83.86-.22,83.86-.22h0Z"/>
    <path class="cls-3" d="m1291.9,972.49c17.68-.05,32.02-14.47,31.98-32.15-.05-17.68-14.47-32.02-32.14-31.98h0l-83.86.22v.02c-17.38.39-31.38,14.67-31.33,32.13.05,17.46,14.12,31.66,31.5,31.96v.02s83.86-.22,83.86-.22h0Z"/>
    <path class="cls-3" d="m1629.9,972.49c17.68-.05,32.02-14.47,31.98-32.15-.05-17.68-14.47-32.02-32.14-31.98h0l-83.86.22v.02c-17.38.39-31.38,14.67-31.33,32.13.05,17.46,14.12,31.66,31.5,31.96v.02s83.86-.22,83.86-.22h0Z"/>
    <path class="cls-3" d="m1745.09,529.02c-.05-17.68-14.47-32.02-32.15-31.98-17.68.05-32.02,14.47-31.98,32.14h0l.22,83.86h.02c.39,17.38,14.67,31.38,32.13,31.33s31.66-14.12,31.96-31.5h.02s-.22-83.86-.22-83.86h0Z"/>
    <path class="cls-3" d="m1994.07,528.37c-.05-17.68-14.47-32.02-32.15-31.98-17.68.05-32.02,14.47-31.98,32.14h0l.22,83.86h.02c.39,17.38,14.67,31.38,32.13,31.33,17.46-.05,31.66-14.12,31.96-31.5h.02s-.22-83.86-.22-83.86h0Z"/>
    <path class="cls-3" d="m1493.8,529.52c-.05-17.68-14.47-32.02-32.15-31.98s-32.02,14.47-31.98,32.15c0,.06,0,.11,0,.17h0s.66,249.47.66,249.47c.05,17.68,14.47,32.02,32.15,31.98,17.68-.05,32.02-14.47,31.98-32.15l-.66-249.47h0c0-.06,0-.11,0-.17Z"/>
    <path class="cls-3" d="m1745.97,861.71c-.05-17.68-14.47-32.02-32.15-31.98-17.68.05-32.02,14.47-31.98,32.14h0l.22,83.86h.02c.39,17.38,14.67,31.38,32.13,31.33s31.66-14.12,31.96-31.5h.02s-.22-83.86-.22-83.86h0Z"/>
    <path class="cls-3" d="m1827.98,528.64c-.05-17.68-14.47-32.02-32.15-31.98-17.68.05-32.02,14.47-31.98,32.15,0,.06,0,.11,0,.17h0s.66,249.47.66,249.47c.05,17.68,14.47,32.02,32.15,31.98,17.68-.05,32.02-14.47,31.98-32.15l-.66-249.47h0c0-.06,0-.11,0-.17Z"/>
    <path class="cls-3" d="m1577,618.44h0l-.44-167.09h0c0-.07,0-.13,0-.2-.05-17.68-14.47-32.02-32.15-31.98-17.68.05-32.02,14.47-31.98,32.15,0,.07,0,.13,0,.2h0l.41,156.7h0s.03,10.39.03,10.39h0l.41,156.9h0c.15,17.59,14.53,31.82,32.14,31.78,17.61-.05,31.91-14.36,31.97-31.95h0l-.41-156.9Z"/>
    <path class="cls-3" d="m1629.45,726.83c17.61-.05,31.91-14.36,31.97-31.95h0s-.44-167.09-.44-167.09h0c0-.07,0-.13,0-.2-.05-17.68-14.47-32.02-32.15-31.98s-32.02,14.47-31.98,32.15c0,.07,0,.13,0,.2h0s.44,167.09.44,167.09h0c.15,17.59,14.53,31.82,32.14,31.78Z"/>
    <path class="cls-3" d="m1712.89,727.43c-17.68.05-32.1-14.3-32.14-31.98-.05-17.68,14.3-32.1,31.98-32.14,17.68-.05,32.1,14.3,32.15,31.98.05,17.68-14.3,32.1-31.98,32.15Z"/>
    <circle class="cls-3" cx="1378.86" cy="779.46" r="32.06"/>
    <path class="cls-3" d="m1629.57,810.86c-17.68.05-32.1-14.3-32.15-31.98s14.3-32.1,31.98-32.15c17.68-.05,32.1,14.3,32.14,31.98.05,17.68-14.3,32.1-31.98,32.15Z"/>
    <path class="cls-3" d="m1713.11,810.65c-17.68.05-32.1-14.3-32.14-31.98-.05-17.68,14.3-32.1,31.98-32.15,17.68-.05,32.1,14.3,32.15,31.98.05,17.68-14.3,32.1-31.98,32.15Z"/>
    <path class="cls-3" d="m1880.2,810.21c-17.68.05-32.1-14.3-32.15-31.98-.05-17.68,14.3-32.1,31.98-32.15,17.68-.05,32.1,14.3,32.14,31.98.05,17.68-14.3,32.1-31.98,32.15Z"/>
    <path class="cls-3" d="m1963.74,809.99c-17.68.05-32.1-14.3-32.14-31.98-.05-17.68,14.3-32.1,31.98-32.15,17.68-.05,32.1,14.3,32.15,31.98.05,17.68-14.3,32.1-31.98,32.15Z"/>
    <path class="cls-3" d="m1629.79,894.08c-17.68.05-32.1-14.3-32.15-31.98-.05-17.68,14.3-32.1,31.98-32.15,17.68-.05,32.1,14.3,32.14,31.98.05,17.68-14.3,32.1-31.98,32.15Z"/>
    <path class="cls-3" d="m1879.27,643.95c-17.68.05-32.1-14.3-32.15-31.98s14.3-32.1,31.98-32.15c17.68-.05,32.1,14.3,32.14,31.98.05,17.68-14.3,32.1-31.98,32.15Z"/>
    <path class="cls-3" d="m1879.05,560.73c-17.68.05-32.1-14.3-32.15-31.98-.05-17.68,14.3-32.1,31.98-32.15,17.68-.05,32.1,14.3,32.14,31.98.05,17.68-14.3,32.1-31.98,32.15Z"/>
    <path class="cls-3" d="m1462.92,977.73c-17.68.05-32.1-14.3-32.15-31.98s14.3-32.1,31.98-32.15c17.68-.05,32.1,14.3,32.14,31.98.05,17.68-14.3,32.1-31.98,32.15Z"/>
    <path class="cls-3" d="m1374.75,977.73c-17.68.05-32.1-14.3-32.15-31.98-.05-17.68,14.3-32.1,31.98-32.15,17.68-.05,32.1,14.3,32.14,31.98.05,17.68-14.3,32.1-31.98,32.15Z"/>
    <circle class="cls-3" cx="1796.79" cy="861.58" r="32.06"/>
    <circle class="cls-3" cx="1797.01" cy="944.54" r="32.06"/>
    <path class="cls-3" d="m1410.48,612.95c-.05-17.68-14.47-32.02-32.15-31.98-17.68.05-32.02,14.47-31.98,32.14h0l.22,83.86h.02c.39,17.38,14.67,31.38,32.13,31.33,17.46-.05,31.66-14.12,31.96-31.5h.02s-.22-83.86-.22-83.86h0Z"/>
    <path class="cls-3" d="m1962.54,726.64c17.68-.05,32.02-14.47,31.98-32.15-.05-17.68-14.47-32.02-32.14-31.98h0l-83.86.22v.02c-17.38.39-31.38,14.67-31.33,32.13.05,17.46,14.12,31.66,31.5,31.96v.02s83.86-.22,83.86-.22h0Z"/>
    <path class="cls-3" d="m1962.54,890.4c17.68-.05,32.02-14.47,31.98-32.15-.05-17.68-14.47-32.02-32.14-31.98h0l-83.86.22v.02c-17.38.39-31.38,14.67-31.33,32.13.05,17.46,14.12,31.66,31.5,31.96v.02s83.86-.22,83.86-.22h0Z"/>
    <path class="cls-3" d="m1963.18,970.72c17.68-.05,32.02-14.47,31.98-32.15-.05-17.68-14.47-32.02-32.14-31.98h0l-83.86.22v.02c-17.38.39-31.38,14.67-31.33,32.13s14.12,31.66,31.5,31.96v.02s83.86-.22,83.86-.22h0Z"/>
  </g>
</svg>