<?xml version="1.0" encoding="UTF-8"?>
<svg id="Laag_1" data-name="Laag 1" xmlns="http://www.w3.org/2000/svg" viewBox="0 0 500 500">
  <defs>
    <style>
      .cls-1 {
        fill: #ff6902;
      }

      .cls-1, .cls-2 {
        stroke-width: 0px;
      }

      .cls-2 {
        fill: #fff;
      }
    </style>
  </defs>
  <circle class="cls-1" cx="250" cy="250" r="206"/>
  <path class="cls-2" d="m278.32,313.8c-1.86,0-3.58-.75-4.84-2.11-1.21-1.29-1.84-2.98-1.77-4.75.06-1.76.82-3.4,2.11-4.61l49.5-46.01h-164.67c-3.49,0-6.33-2.84-6.33-6.33s2.84-6.33,6.33-6.33h164.65l-49.48-46c-2.67-2.49-2.82-6.69-.33-9.36,1.26-1.36,2.98-2.11,4.84-2.11,1.68,0,3.28.63,4.51,1.77l63.59,59.14c.82.75,1.27,1.79,1.27,2.9s-.45,2.14-1.27,2.9l-63.59,59.13c-1.23,1.14-2.83,1.77-4.51,1.77"/>
</svg>