<?xml version="1.0" encoding="UTF-8"?>
<svg id="Laag_1" data-name="Laag 1" xmlns="http://www.w3.org/2000/svg" viewBox="0 0 500 500">
  <defs>
    <style>
      .cls-1 {
        fill: #592e9d;
        stroke-width: 0px;
      }
    </style>
  </defs>
  <path class="cls-1" d="m258,191.54c-1.62,0-3.55.28-5.83.96-4.83,1.44-7.59,4.31-8.95,9.29-1.47,5.35-1.1,12.62,1.02,19.95,2.96,10.26,8.64,19.73,15.04,29.42,5.59-8.13,9.75-17.23,12.06-26.72,2.65-10.93-.01-24.41-5.94-30.04-1.41-1.34-3.58-2.86-7.39-2.86Z"/>
  <path class="cls-1" d="m250,50c-110.46,0-200,89.54-200,200s89.54,200,200,200,200-89.54,200-200S360.46,50,250,50Zm25.08,44.16c12.62,0,22.84,10.23,22.84,22.84s-10.23,22.84-22.84,22.84-22.84-10.23-22.84-22.84,10.23-22.84,22.84-22.84Zm22.43,136.64c-3.36,13.86-9.75,27.37-18.47,39.07-1.35,1.81-2.75,3.57-4.21,5.29,2.4,4.11,4.66,8.37,6.65,12.82,12.37,27.68,6.71,53.18,1.24,77.84-2.83,12.76-5.51,24.82-5.66,36.95l-26.94-.34c.19-14.91,3.3-28.9,6.3-42.44,4.94-22.25,9.2-41.47.47-61.02-.76-1.71-1.59-3.4-2.46-5.08-2.45,1.73-4.96,3.35-7.53,4.85-13.27,7.75-27.28,11.72-40.47,11.72-7.16,0-14.08-1.17-20.52-3.55-19.47-7.2-34.87-25.68-41.2-49.42-5.19-19.44-4.43-39.23-3.7-58.36.21-5.5.41-10.7.47-15.86.09-7.5.31-20.35.32-20.47l26.94.48c0,.13-.23,12.89-.31,20.3-.06,5.52-.28,11.14-.48,16.57-.65,17.15-1.33,34.87,2.81,50.39,3.15,11.81,11.25,26.18,24.52,31.09,10.68,3.95,24.55,1.7,38.05-6.17,2.34-1.37,4.61-2.86,6.8-4.47-8.53-12.68-17.19-25.87-21.78-41.79-3.5-12.14-3.89-24.41-1.11-34.55,3.82-13.93,13.49-23.87,27.22-27.97,15.14-4.53,29.17-1.63,39.49,8.17,6.86,6.51,11.69,15.74,13.97,26.68,2,9.6,1.86,19.99-.39,29.26Z"/>
</svg>