<?xml version="1.0" encoding="UTF-8"?>
<svg id="Laag_1" data-name="Laag 1" xmlns="http://www.w3.org/2000/svg" viewBox="0 0 500 500">
  <defs>
    <style>
      .cls-1 {
        fill: #592e9d;
      }

      .cls-1, .cls-2 {
        stroke-width: 0px;
      }

      .cls-2 {
        fill: #fff;
      }
    </style>
  </defs>
  <circle class="cls-1" cx="250" cy="250" r="200"/>
  <g>
    <path class="cls-2" d="m392.72,249.05c-2.86-5.87-9.6-10-17.6-10.79-5.58-.55-12.35,2.07-20.12,7.8,5.33-20.49,14.98-58.24,15.51-64.8.53-6.55-4-13.06-11.02-15.84-3.9-1.54-7.83-1.59-11.25-.29,1.14-6.74,1.66-13.75.28-18.5-1.67-5.76-6.75-10.18-12.94-11.27-5.98-1.05-11.64,1.18-15.13,5.97-1.36,1.86-2.91,5.54-4.52,10.28-1.86-3.84-5-7.22-10.23-8.72-4.19-1.2-8.28-.56-11.81,1.84-4.32,2.94-7.4,8.32-9.59,14.07-2.1-2.15-4.95-3.62-8.27-4.12-7.09-1.08-13.9,2.49-16.56,8.67-3.49,8.12-12.92,39.43-18.51,63.16-5.55-9.7-10.61-17.47-13.74-20.36-3.93-3.63-10.17-4.61-15.53-2.43-2.68,1.09-4.8,2.81-6.2,4.94-1.21-2.36-2.31-4.28-3.14-5.34-4.69-6-10.79-8.21-19.8-7.13-5.46.65-9.66,4.13-12.26,7.01-1.5-2.21-2.9-3.97-4.14-5.12-5.7-5.25-12.52-6.92-18.72-4.59-5.97,2.25-10.12,7.76-10.82,14.39-.49,4.6,1.71,11.25,4.41,17.42-3.24-.21-6.61.7-9.71,2.76-6.29,4.18-9.37,11.49-7.49,17.78,1.89,6.31,19.18,41.22,28.65,60.16-8.79-3.98-15.96-5.14-21.31-3.44-7.66,2.44-13.4,7.88-14.98,14.22-1.03,4.15-.83,10.55,5.97,17.49,11.58,11.81,68.11,45.14,86.71,48.04,6.04.94,11.84,1.06,17.35.48,26.52-2.79,46.2-21.7,51.35-42.27.68-2.71,1.19-5.29,1.55-7.75,7.25,2.34,15.15,3.07,23.62,2.18,4.07-.43,8.27-1.23,12.59-2.4,19.15-5.2,66.85-51.98,75.21-65.14,5.21-8.2,4.07-14.5,2.2-18.35Zm-182.64,125.29c-17.07-2.66-71.45-34.76-82.2-45.72-2.32-2.36-4.87-6-3.9-9.91.89-3.58,4.66-6.91,9.6-8.48,6.41-2.05,19.37,4.38,26.03,8.91,1.52,1.03,3.54.91,4.92-.3,1.38-1.21,1.77-3.2.94-4.84-12.71-25.19-32.25-64.75-33.96-70.46-.85-2.83.97-6.6,4.23-8.76,1.71-1.14,5.07-2.64,8.31.03,1.42,1.17,3.11,3.23,4.93,5.83.02.03.05.08.07.11.06.09.13.17.19.26,6.83,9.88,15.41,27.15,18.83,34.51.94,2.02,3.34,2.9,5.35,1.96,2.02-.94,2.89-3.33,1.96-5.35-1.32-2.84-10.84-23.1-19.42-35.51,0,0,0-.01,0-.02-5.05-8.39-11.92-22.58-11.36-27.85.38-3.53,2.6-6.56,5.65-7.71,3.29-1.24,7-.18,10.42,2.97,6.44,5.93,21.2,38.39,29.55,58.76.69,1.69,2.41,2.66,4.15,2.48.37-.04.74-.13,1.11-.28,2.06-.84,3.04-3.2,2.2-5.25-1.66-4.04-13.18-31.91-22.95-49.24,1.5-2.12,4.87-5.82,8.77-6.29,7.09-.84,10.04.94,12.5,4.09,2.15,2.75,8.53,17.12,12.08,25.61,4.55,12.55,10.93,26.14,11.23,26.78.95,2.01,3.35,2.87,5.36,1.93,2.01-.95,2.87-3.35,1.93-5.36-.08-.18-8.34-17.75-12.61-30.92-1.88-5.82-2.45-9.79-2.37-11.43.12-2.17,1.99-3.25,3.1-3.7,2.49-1.01,5.38-.65,7.04.88,7.09,6.55,29.64,49.45,37.95,70.65,1.17,2.99,2.33,5.8,3.45,8.52,6.66,16.15,11.47,27.82,6.58,47.33-6.81,27.17-35.67,39.53-59.65,35.79Zm173.64-111.27c-8.52,13.4-54.56,57.36-70.52,61.69-12.56,3.41-23.78,3.31-33.42-.29.24-13.42-4.08-23.91-9.19-36.32-1.11-2.68-2.25-5.46-3.4-8.39-4.14-10.56-12.26-27.53-20.36-42.64,5.1-24.53,16.68-62.82,20.03-70.61,1.41-3.29,5.11-4.32,7.95-3.89,1.45.22,4.88,1.18,5.31,5.32.14,1.31.25,3.73-.07,7.32-.44,2.73-.66,4.75-.74,5.58-2.37,13.86-5.92,32.98-5.96,33.17-.41,2.19,1.04,4.29,3.22,4.69,2.19.41,4.29-1.04,4.69-3.22.04-.19,3.62-19.49,6-33.42.36-2.13.61-4.05.78-5.78,1.57-9.37,5.1-21.31,10.39-24.92,1.57-1.07,3.13-1.3,5.05-.75,6.87,1.97,6.94,10.63,6.96,13.47.04,4.53-.77,8.9-1.3,11.28-4,15.79-7.33,31.55-7.98,34.69-.46,2.18.94,4.31,3.12,4.77.42.09.84.11,1.25.06,1.69-.18,3.15-1.43,3.52-3.18,1.94-9.27,4.63-21.19,7.42-32.36.05-.19.23-.83.45-1.8,3.77-14.93,7.65-28.19,10.06-31.48,2.37-3.25,5.85-3.03,7.23-2.79,3.18.56,5.77,2.75,6.59,5.58.75,2.59,1.3,13.67-5.08,33.62-5.21,13.8-9.55,32.38-10.19,35.18-.5,2.17.86,4.33,3.02,4.83,2.17.5,4.33-.86,4.83-3.02,1.65-7.18,5.76-23.21,9.96-34.4.01-.04.04-.08.05-.12.01-.04.03-.09.04-.14,1.7-4.49,3.41-8.18,4.98-10.15,2.62-3.29,6.22-2.52,8.12-1.76,3.64,1.44,6.2,4.75,5.96,7.69-.48,5.86-11.06,47.49-18.26,74.81-2.94,2.61-7.48,6.41-9.49,7.57-1.22.7-4.85.47-8.06.28-7.84-.48-18.57-1.13-28.28,6.29-1.77,1.35-2.11,3.88-.76,5.64.88,1.16,2.27,1.7,3.63,1.56.71-.07,1.41-.34,2.02-.81,7.33-5.6,15.6-5.09,22.91-4.65,4.96.3,9.25.57,12.56-1.33,3.71-2.12,10.96-8.63,11.77-9.37.03-.03.05-.06.09-.09.04-.04.09-.07.12-.11.04-.04,3.79-3.94,8.77-7.64,6.07-4.52,11.34-6.83,14.85-6.48,5.16.51,9.54,2.98,11.15,6.3,1.76,3.62.02,7.71-1.76,10.5Z"/>
    <g>
      <path class="cls-2" d="m214.24,156.2c-.46.05-.94.02-1.41-.1-2.16-.55-3.46-2.74-2.91-4.9l6.99-27.45c.55-2.16,2.74-3.46,4.9-2.91,2.16.55,3.46,2.74,2.91,4.9l-6.99,27.45c-.43,1.68-1.85,2.84-3.48,3.01Z"/>
      <path class="cls-2" d="m180.7,159.55c-1.59.17-3.2-.63-3.99-2.13l-18.18-34.66c-1.03-1.97-.27-4.4,1.69-5.44,1.97-1.03,4.4-.27,5.44,1.7l18.18,34.66c1.03,1.97.27,4.4-1.69,5.44-.47.24-.96.39-1.45.44Z"/>
      <path class="cls-2" d="m147.57,170.88c-.9.09-1.84-.11-2.65-.65l-20.38-13.54c-1.85-1.23-2.36-3.73-1.13-5.58,1.23-1.85,3.73-2.36,5.58-1.13l20.38,13.54c1.85,1.23,2.36,3.73,1.13,5.58-.69,1.04-1.78,1.66-2.94,1.78Z"/>
    </g>
  </g>
</svg>