<?xml version="1.0" encoding="UTF-8"?>
<svg id="Laag_1" data-name="Laag 1" xmlns="http://www.w3.org/2000/svg" viewBox="0 0 1000 500">
  <defs>
    <style>
      .cls-1 {
        fill: #ff6902;
        stroke-width: 0px;
      }
    </style>
  </defs>
  <path class="cls-1" d="m411,149.68h25.75v108.76c0,30.38-17.88,48.52-47.83,48.52h-46.45v-25.29h46.22c15.84,0,22.3-6.53,22.3-22.53v-109.44Z"/>
  <path class="cls-1" d="m724.08,307.36c-4.2,0-8.43-.24-12.56-.71-4.08-.46-7.74-1.01-10.88-1.64l-1.85-.37v-22.04l2.83.68c3.13.75,6.62,1.39,10.36,1.91,3.69.52,7.37.78,10.95.78,6.7,0,11.84-1.18,15.26-3.51,3.19-2.17,4.74-4.86,4.74-8.22,0-2.52-.95-4.85-2.9-7.13-2.09-2.44-5.88-5.08-11.26-7.84l-11.36-6.49c-6.54-3.66-11.63-8.03-15.11-12.97-3.56-5.05-5.36-10.63-5.36-16.61,0-9.16,3.91-16.67,11.63-22.32,7.5-5.48,17.66-8.26,30.21-8.26,3.87,0,7.78.2,11.61.59,3.88.4,7.23,1,9.96,1.81l1.65.48v20.92l-2.81-.64c-3.27-.74-6.46-1.27-9.49-1.56-3.07-.3-6.28-.45-9.55-.45-6.13,0-10.86,1.01-14.08,2.99-2.9,1.79-4.31,3.97-4.31,6.67,0,1.9.72,3.67,2.2,5.4,1.66,1.94,4.55,4.09,8.59,6.4l11.24,6.19c8.09,4.6,14.1,9.58,17.88,14.81,3.87,5.36,5.84,11.5,5.84,18.24,0,10.38-3.99,18.59-11.86,24.38-7.65,5.64-18.28,8.5-31.6,8.5Z"/>
  <rect class="cls-1" x="342.48" y="149.68" width="25.75" height="112.56"/>
  <path class="cls-1" d="m456.04,306.95v-108.76c0-30.38,17.88-48.52,47.83-48.52h46.45v25.29h-46.22c-15.84,0-22.3,6.53-22.3,22.53v20.46h56.56v23.68h-56.56v65.3h-25.75Z"/>
  <path class="cls-1" d="m883.69,307.5c-30.88,0-55.07-25.16-55.07-57.29s24.19-57.73,55.07-57.73,55.3,25.36,55.3,57.73-24.29,57.29-55.3,57.29Zm0-92.68c-17.27,0-30.3,15.31-30.3,35.61s13.03,34.73,30.3,34.73,30.3-14.93,30.3-34.73-13.03-35.61-30.3-35.61Z"/>
  <g>
    <path class="cls-1" d="m784.17,306.95v-114.14h25.83v114.14h-25.83Z"/>
    <circle class="cls-1" cx="797.08" cy="162.61" r="13.15"/>
  </g>
  <path class="cls-1" d="m179.58,203.39c-.93,0-2.02.16-3.33.55-2.75.82-4.33,2.46-5.1,5.29-.84,3.05-.63,7.2.58,11.38,1.69,5.85,4.92,11.24,8.58,16.77,3.19-4.63,5.56-9.82,6.88-15.23,1.51-6.23,0-13.92-3.39-17.12-.8-.76-2.04-1.63-4.21-1.63Z"/>
  <path class="cls-1" d="m175.02,122.71c-62.97,0-114.01,51.05-114.01,114.01s51.05,114.01,114.01,114.01,114.01-51.05,114.01-114.01-51.05-114.01-114.01-114.01Zm14.3,25.17c7.19,0,13.02,5.83,13.02,13.02s-5.83,13.02-13.02,13.02-13.02-5.83-13.02-13.02,5.83-13.02,13.02-13.02Zm12.79,77.89c-1.92,7.9-5.56,15.6-10.53,22.27-.77,1.03-1.57,2.04-2.4,3.02,1.37,2.34,2.66,4.77,3.79,7.31,7.05,15.78,3.82,30.32.71,44.38-1.61,7.28-3.14,14.15-3.23,21.06l-15.36-.2c.11-8.5,1.88-16.48,3.59-24.19,2.81-12.68,5.24-23.64.27-34.78-.44-.97-.9-1.94-1.4-2.89-1.4.99-2.83,1.91-4.29,2.76-7.57,4.42-15.55,6.68-23.07,6.68-4.08,0-8.03-.67-11.7-2.03-11.1-4.11-19.88-14.64-23.49-28.17-2.96-11.08-2.53-22.36-2.11-33.27.12-3.14.23-6.1.27-9.04.05-4.28.18-11.6.18-11.67l15.36.27c0,.07-.13,7.35-.18,11.57-.04,3.15-.16,6.35-.28,9.45-.37,9.77-.76,19.88,1.6,28.73,1.8,6.73,6.41,14.92,13.98,17.73,6.09,2.25,14,.97,21.69-3.52,1.33-.78,2.63-1.63,3.88-2.55-4.86-7.23-9.8-14.75-12.41-23.82-1.99-6.92-2.22-13.91-.63-19.69,2.18-7.94,7.69-13.61,15.52-15.95,8.63-2.58,16.63-.93,22.51,4.66,3.91,3.71,6.66,8.97,7.96,15.21,1.14,5.47,1.06,11.4-.22,16.68Z"/>
  <path class="cls-1" d="m664.48,377.29h-23.61c.15-11.58,2.22-22.53,4.54-32.98,3.73-16.79,6.94-31.3.45-45.84-.4-.88-.81-1.76-1.25-2.64-.49.3-.98.59-1.48.88-11.81,6.9-25.95,13.88-44.19,9.38-15.75-3.88-28.03-18.24-33.68-39.41-3.97-14.87-3.49-30.78-3.07-44.81.13-4.39.26-8.53.26-12.56,0-5.86.19-16.11.2-16.52h23.61c0,.1-.2,10.95-.2,16.52,0,4.38-.14,8.9-.27,13.26-.39,13.02-.79,26.48,2.28,38.01,2.56,9.58,8.23,20.54,16.5,22.57,8.87,2.18,15.93-.59,26.65-6.85.3-.18.6-.36.9-.54-6.27-9.37-12.49-19.16-15.89-30.96-6.9-23.93,1.54-43.92,21.01-49.74,12.14-3.63,23.4-1.28,31.71,6.6,12.05,11.44,14.06,30.98,10.83,44.29-3.25,13.38-8.87,24.81-16.79,34.18,1.59,2.79,3.09,5.68,4.43,8.68,9.68,21.66,5.09,42.34,1.04,60.58-2.15,9.7-3.86,18.72-3.98,27.86Zm-16.41-160.26c-1.1,0-2.43.19-4.06.68-3.24.97-4.94,2.73-5.86,6.09-1.06,3.84-.77,9.12.77,14.49,2.07,7.17,5.95,13.88,10.4,20.71,3.31-5.33,5.78-11.48,7.5-18.58,1.92-7.92.07-17.61-4.13-21.59-.63-.6-1.88-1.78-4.63-1.78Z"/>
</svg>