<?xml version="1.0" encoding="UTF-8"?>
<svg id="Laag_1" data-name="Laag 1" xmlns="http://www.w3.org/2000/svg" viewBox="0 0 500 500">
  <defs>
    <style>
      .cls-1 {
        fill: #282628;
        stroke-width: 0px;
      }
    </style>
  </defs>
  <path class="cls-1" d="m463.16,253.41c-4.27-8.77-14.36-14.96-26.32-16.13-8.35-.82-18.47,3.1-30.09,11.66,7.97-30.64,22.4-87.08,23.2-96.89.8-9.79-5.98-19.52-16.48-23.68-5.83-2.31-11.7-2.38-16.81-.44,1.7-10.08,2.49-20.56.43-27.66-2.5-8.61-10.09-15.23-19.34-16.85-8.94-1.57-17.4,1.77-22.62,8.93-2.03,2.79-4.35,8.29-6.77,15.37-2.78-5.74-7.47-10.79-15.3-13.04-6.27-1.8-12.38-.84-17.65,2.76-6.45,4.4-11.07,12.45-14.34,21.03-3.15-3.22-7.4-5.41-12.37-6.17-10.6-1.61-20.78,3.72-24.76,12.96-5.22,12.14-19.31,58.96-27.67,94.43-8.3-14.51-15.86-26.11-20.55-30.44-5.87-5.43-15.21-6.89-23.22-3.63-4,1.63-7.17,4.2-9.27,7.38-1.82-3.52-3.46-6.4-4.7-7.98-7.01-8.98-16.13-12.27-29.61-10.66-8.16.97-14.44,6.18-18.34,10.48-2.24-3.3-4.34-5.94-6.2-7.65-8.52-7.84-18.72-10.35-27.98-6.86-8.92,3.36-15.12,11.6-16.18,21.51-.73,6.87,2.55,16.82,6.6,26.05-4.85-.31-9.88,1.05-14.52,4.12-9.41,6.25-14.01,17.18-11.2,26.59,2.82,9.43,28.67,61.64,42.83,89.95-13.14-5.96-23.86-7.68-31.86-5.15-11.45,3.64-20.03,11.79-22.39,21.25-1.54,6.2-1.25,15.77,8.92,26.15,17.31,17.66,101.84,67.48,129.64,71.82,9.02,1.41,17.7,1.58,25.94.72,39.66-4.17,69.07-32.45,76.78-63.2,1.02-4.05,1.78-7.9,2.32-11.59,10.84,3.5,22.65,4.6,35.32,3.27,6.08-.64,12.36-1.84,18.83-3.59,28.63-7.77,99.94-77.72,112.44-97.39,7.79-12.26,6.09-21.68,3.29-27.43Zm-273.07,187.33c-25.52-3.98-106.83-51.97-122.9-68.36-3.46-3.53-7.29-8.97-5.83-14.81,1.33-5.36,6.97-10.34,14.35-12.68,9.58-3.06,28.96,6.55,38.92,13.31,2.27,1.54,5.3,1.36,7.36-.45,2.06-1.81,2.64-4.79,1.4-7.24-19.01-37.66-48.22-96.8-50.77-105.35-1.27-4.24,1.45-9.87,6.32-13.1,2.56-1.7,7.57-3.95,12.43.05,2.12,1.75,4.65,4.83,7.37,8.71.03.05.07.12.1.17.09.14.2.26.29.39,10.21,14.77,23.04,40.59,28.16,51.59,1.4,3.02,4.99,4.33,8,2.92,3.02-1.4,4.32-4.98,2.92-8-1.98-4.25-16.2-34.54-29.04-53.1,0,0,0-.02-.01-.03-7.56-12.55-17.82-33.76-16.98-41.64.56-5.28,3.88-9.8,8.45-11.52,4.92-1.85,10.46-.28,15.58,4.44,9.63,8.87,31.7,57.4,44.18,87.86,1.04,2.53,3.61,3.98,6.2,3.71.56-.06,1.11-.2,1.66-.42,3.08-1.26,4.55-4.78,3.29-7.85-2.48-6.04-19.71-47.71-34.32-73.62,2.25-3.17,7.28-8.7,13.11-9.4,10.6-1.25,15.01,1.4,18.69,6.12,3.21,4.11,12.76,25.6,18.06,38.29,6.8,18.77,16.34,39.08,16.8,40.04,1.42,3.01,5,4.3,8.01,2.88,3.01-1.42,4.3-5.01,2.88-8.01-.12-.26-12.47-26.54-18.85-46.23-2.82-8.7-3.67-14.64-3.54-17.09.17-3.25,2.98-4.86,4.63-5.54,3.72-1.51,8.04-.97,10.52,1.32,10.6,9.8,44.31,73.93,56.74,105.64,1.75,4.47,3.48,8.67,5.16,12.73,9.95,24.15,17.15,41.6,9.84,70.76-10.18,40.62-53.34,59.11-89.18,53.51Zm259.62-166.36c-12.73,20.04-81.57,85.75-105.43,92.23-18.77,5.09-35.56,4.94-49.96-.44.35-20.06-6.1-35.75-13.75-54.3-1.65-4.01-3.36-8.16-5.08-12.54-6.19-15.79-18.33-41.16-30.44-63.75,7.63-36.68,24.94-93.92,29.95-105.57,2.11-4.91,7.63-6.46,11.88-5.81,2.17.33,7.29,1.77,7.93,7.96.2,1.96.38,5.57-.1,10.94-.66,4.08-.99,7.1-1.11,8.34-3.55,20.73-8.85,49.31-8.91,49.6-.61,3.27,1.55,6.41,4.82,7.02,3.27.61,6.41-1.55,7.02-4.82.05-.29,5.41-29.15,8.97-49.97.54-3.19.91-6.05,1.16-8.64,2.35-14,7.62-31.86,15.53-37.25,2.35-1.6,4.68-1.95,7.55-1.13,10.27,2.94,10.37,15.89,10.4,20.15.05,6.77-1.15,13.31-1.94,16.87-5.97,23.6-10.96,47.18-11.94,51.86-.68,3.25,1.41,6.45,4.66,7.13.63.13,1.26.16,1.86.1,2.53-.27,4.71-2.13,5.26-4.76,2.9-13.86,6.92-31.68,11.09-48.38.08-.29.34-1.23.67-2.69,5.63-22.33,11.44-42.14,15.04-47.07,3.54-4.86,8.74-4.53,10.81-4.17,4.76.84,8.63,4.11,9.86,8.35,1.12,3.87,1.95,20.44-7.6,50.27-7.78,20.64-14.28,48.41-15.24,52.6-.74,3.24,1.28,6.47,4.52,7.21,3.24.74,6.47-1.28,7.22-4.52,2.46-10.73,8.61-34.71,14.89-51.44.02-.06.06-.12.08-.18.02-.05.04-.14.06-.2,2.54-6.72,5.1-12.23,7.44-15.18,3.92-4.92,9.29-3.76,12.15-2.63,5.44,2.15,9.27,7.1,8.91,11.5-.71,8.77-16.54,71.01-27.3,111.85-4.4,3.9-11.18,9.59-14.19,11.31-1.82,1.04-7.26.71-12.06.42-11.72-.71-27.77-1.69-42.29,9.4-2.64,2.02-3.15,5.8-1.13,8.44,1.32,1.73,3.4,2.55,5.42,2.33,1.06-.11,2.11-.51,3.02-1.2,10.96-8.37,23.33-7.61,34.25-6.95,7.42.45,13.83.85,18.77-1.99,5.55-3.18,16.39-12.91,17.6-14.01.05-.04.08-.1.13-.14.06-.06.13-.1.19-.16.06-.06,5.67-5.88,13.11-11.43,9.08-6.76,16.96-10.21,22.2-9.69,7.71.76,14.26,4.46,16.68,9.42,2.63,5.41.03,11.52-2.63,15.7Z"/>
  <g>
    <path class="cls-1" d="m196.31,114.59c-.69.07-1.4.03-2.11-.15-3.22-.82-5.17-4.1-4.35-7.32l10.45-41.04c.82-3.22,4.09-5.17,7.32-4.35,3.22.82,5.17,4.1,4.35,7.32l-10.45,41.04c-.64,2.51-2.77,4.25-5.21,4.5Z"/>
    <path class="cls-1" d="m146.16,119.61c-2.38.25-4.78-.94-5.96-3.19l-27.18-51.81c-1.55-2.95-.41-6.58,2.53-8.13,2.95-1.54,6.58-.41,8.13,2.53l27.18,51.81c1.55,2.95.41,6.58-2.53,8.13-.7.36-1.43.58-2.17.66Z"/>
    <path class="cls-1" d="m96.63,136.53c-1.34.14-2.74-.17-3.96-.97l-30.47-20.24c-2.77-1.84-3.52-5.58-1.68-8.35,1.84-2.77,5.58-3.52,8.35-1.68l30.47,20.24c2.77,1.84,3.52,5.58,1.68,8.35-1.03,1.56-2.67,2.48-4.39,2.66Z"/>
  </g>
</svg>