<?xml version="1.0" encoding="UTF-8"?>
<svg id="Laag_1" data-name="Laag 1" xmlns="http://www.w3.org/2000/svg" viewBox="0 0 700 500">
  <defs>
    <style>
      .cls-1 {
        fill: #fff;
        stroke-width: 0px;
      }
    </style>
  </defs>
  <path class="cls-1" d="m120.26,136.31h25.75v108.76c0,30.38-17.88,48.52-47.83,48.52h-46.45v-25.29h46.22c15.84,0,22.3-6.53,22.3-22.53v-109.44Z"/>
  <path class="cls-1" d="m433.34,293.99c-4.2,0-8.43-.24-12.56-.71-4.08-.46-7.74-1.01-10.88-1.64l-1.85-.37v-22.04l2.83.68c3.13.75,6.62,1.39,10.36,1.91,3.69.52,7.37.78,10.95.78,6.7,0,11.84-1.18,15.26-3.51,3.19-2.17,4.74-4.86,4.74-8.22,0-2.52-.95-4.85-2.9-7.13-2.09-2.44-5.88-5.08-11.26-7.84l-11.36-6.49c-6.54-3.66-11.63-8.03-15.11-12.97-3.56-5.05-5.36-10.63-5.36-16.61,0-9.16,3.91-16.67,11.63-22.32,7.5-5.48,17.66-8.26,30.21-8.26,3.87,0,7.78.2,11.61.59,3.88.4,7.23,1,9.96,1.81l1.65.48v20.92l-2.81-.64c-3.27-.74-6.46-1.27-9.49-1.56-3.07-.3-6.28-.45-9.55-.45-6.13,0-10.86,1.01-14.08,2.99-2.9,1.79-4.31,3.97-4.31,6.67,0,1.9.72,3.67,2.2,5.4,1.66,1.94,4.55,4.09,8.59,6.4l11.24,6.19c8.09,4.6,14.1,9.58,17.88,14.81,3.87,5.36,5.84,11.5,5.84,18.24,0,10.38-3.99,18.59-11.86,24.38-7.65,5.64-18.28,8.5-31.6,8.5Z"/>
  <rect class="cls-1" x="51.75" y="136.31" width="25.75" height="112.56"/>
  <path class="cls-1" d="m165.31,293.58v-108.76c0-30.38,17.88-48.52,47.83-48.52h46.45v25.29h-46.22c-15.84,0-22.3,6.53-22.3,22.53v20.46h56.56v23.68h-56.56v65.3h-25.75Z"/>
  <path class="cls-1" d="m592.96,294.13c-30.88,0-55.07-25.16-55.07-57.29s24.19-57.73,55.07-57.73,55.3,25.36,55.3,57.73-24.29,57.29-55.3,57.29Zm0-92.68c-17.27,0-30.3,15.31-30.3,35.61s13.03,34.73,30.3,34.73,30.3-14.93,30.3-34.73-13.03-35.61-30.3-35.61Z"/>
  <g>
    <path class="cls-1" d="m493.43,293.58v-114.14h25.83v114.14h-25.83Z"/>
    <circle class="cls-1" cx="506.35" cy="149.23" r="13.15"/>
  </g>
  <path class="cls-1" d="m373.74,363.92h-23.61c.15-11.58,2.22-22.53,4.54-32.98,3.73-16.79,6.94-31.3.45-45.84-.4-.88-.81-1.76-1.25-2.64-.49.3-.98.59-1.48.88-11.81,6.9-25.95,13.88-44.19,9.38-15.75-3.88-28.03-18.24-33.68-39.41-3.97-14.87-3.49-30.78-3.07-44.81.13-4.39.26-8.53.26-12.56,0-5.86.19-16.11.2-16.52h23.61c0,.1-.2,10.95-.2,16.52,0,4.38-.14,8.9-.27,13.26-.39,13.02-.79,26.48,2.28,38.01,2.56,9.58,8.23,20.54,16.5,22.57,8.87,2.18,15.93-.59,26.65-6.85.3-.18.6-.36.9-.54-6.27-9.37-12.49-19.16-15.89-30.96-6.9-23.93,1.54-43.92,21.01-49.74,12.14-3.63,23.4-1.28,31.71,6.6,12.05,11.44,14.06,30.98,10.83,44.29-3.25,13.38-8.87,24.81-16.79,34.18,1.59,2.79,3.09,5.68,4.43,8.68,9.68,21.66,5.09,42.34,1.04,60.58-2.15,9.7-3.86,18.72-3.98,27.86Zm-16.41-160.26c-1.1,0-2.43.19-4.06.68-3.24.97-4.94,2.73-5.86,6.09-1.06,3.84-.77,9.12.77,14.49,2.07,7.17,5.95,13.88,10.4,20.71,3.31-5.33,5.78-11.48,7.5-18.58,1.92-7.92.07-17.61-4.13-21.59-.63-.6-1.88-1.78-4.63-1.78Z"/>
</svg>